<svg xmlns="http://www.w3.org/2000/svg" viewBox="0 0 369.47 592.44"><defs><style>.cls-1,.cls-11,.cls-12{fill:none;stroke-miterlimit:10;}.cls-1,.cls-12{stroke:#fff;}.cls-2{fill:#6d8cc8;}.cls-3{fill:#ea4e93;}.cls-4{fill:#faea4a;}.cls-5{fill:#ea4d50;}.cls-6{fill:#acca3b;}.cls-7{fill:#f59f4f;}.cls-8{fill:#fff;}.cls-9{fill:#5c351b;}.cls-10{fill:#f8ecdb;}.cls-11{stroke:#f8ecdb;}.cls-11,.cls-12{stroke-width:3px;}</style></defs><title>Asset 1</title><g id="Layer_2" data-name="Layer 2"><g id="Baloons"><line class="cls-1" x1="172.55" y1="372.63" x2="250.64" y2="289.33"/><line class="cls-1" x1="171.41" y1="372.75" x2="230.3" y2="284.83"/><line class="cls-1" x1="158.3" y1="298.45" x2="172.55" y2="372.63"/><line class="cls-1" x1="170.8" y1="370.64" x2="175.26" y2="293.5"/><path class="cls-2" d="M265,257.12c-2.82-4.71-21.52-16.95-39.14,1.61-14.49,15.26-8.52,44.89-5.93,54.94a4.56,4.56,0,0,0,.34.88c-1.51,0-2.91.7-2.07,3.88a1.69,1.69,0,0,0,1.87,1.23c1.35-.19,3.17-.79,3.33-2.68a4.57,4.57,0,0,0,1.13.12c8.16-.28,28.18-2.53,40.49-17.35C280.71,280.79,267.8,261.82,265,257.12Z"/><path class="cls-2" d="M163.91,14.44C161.08,9.73,142.39-2.51,124.77,16c-14.49,15.26-8.52,44.89-5.93,54.94a4.56,4.56,0,0,0,.34.88c-1.51,0-2.91.7-2.07,3.88A1.69,1.69,0,0,0,119,77c1.35-.19,3.17-.79,3.33-2.68a4.57,4.57,0,0,0,1.13.12c8.16-.28,28.18-2.53,40.49-17.35C179.64,38.11,166.73,19.14,163.91,14.44Z"/><path class="cls-2" d="M162,260.95c-5.47-.5-26.39,7.34-21.83,32.53,3.75,20.71,31.18,33.4,40.81,37.26a4.56,4.56,0,0,0,.91.25c-.92,1.21-1.15,2.76,1.9,4a1.69,1.69,0,0,0,2.1-.78c.65-1.2,1.23-3-.19-4.27a4.57,4.57,0,0,0,.76-.84c4.6-6.74,14.62-24.23,9.93-42.91C190.35,262.24,167.42,261.45,162,260.95Z"/><path class="cls-3" d="M88.24,83.51c-4.74-2.77-27-4.5-33.54,20.25-5.36,20.35,14.13,43.45,21.23,51a4.56,4.56,0,0,0,.72.61c-1.34.71-2.21,2,0,4.4a1.69,1.69,0,0,0,2.23.18c1.09-.81,2.4-2.22,1.63-3.95a4.57,4.57,0,0,0,1-.44c7-4.17,23.49-15.78,27.14-34.69C113.43,96.7,93,86.28,88.24,83.51Z"/><path class="cls-3" d="M211.15,8.33C208.33,3.62,189.63-8.62,172,9.94c-14.49,15.26-8.52,44.89-5.93,54.94a4.56,4.56,0,0,0,.34.88c-1.51,0-2.91.7-2.07,3.88a1.69,1.69,0,0,0,1.87,1.23c1.35-.19,3.17-.79,3.33-2.68a4.57,4.57,0,0,0,1.13.12c8.16-.28,28.18-2.53,40.49-17.35C226.89,32,214,13,211.15,8.33Z"/><path class="cls-4" d="M225,1.67c-5.34-.17-27.19-3.3-32.61,21.71-4.45,20.57,16,42.78,23.47,50a4.56,4.56,0,0,0,.75.58c-1.31.76-2.12,2.11.24,4.39a1.69,1.69,0,0,0,2.23.08c1.06-.86,2.3-2.33,1.45-4a4.57,4.57,0,0,0,1-.49c6.83-4.47,22.77-16.8,25.58-35.86C250.76,13.72,230.36,1.83,225,1.67Z"/><path class="cls-4" d="M122.24,44.74c-4.27-3.45-26-8.51-36.2,15C77.69,79,93.49,104.8,99.37,113.35a4.56,4.56,0,0,0,.62.71c-1.43.5-2.49,1.66-.61,4.36a1.69,1.69,0,0,0,2.18.51c1.2-.64,2.7-1.84,2.2-3.66a4.57,4.57,0,0,0,1.1-.28c7.57-3.07,25.6-12.07,32-30.22C145.16,61.55,126.52,48.19,122.24,44.74Z"/><path class="cls-5" d="M264.48,18.33c-2.82-4.71-21.52-16.95-39.14,1.61-14.49,15.26-8.52,44.89-5.93,54.94a4.56,4.56,0,0,0,.34.88c-1.51,0-2.91.7-2.07,3.88a1.69,1.69,0,0,0,1.87,1.23c1.35-.19,3.17-.79,3.33-2.68a4.57,4.57,0,0,0,1.13.12c8.16-.28,28.18-2.53,40.49-17.35C280.22,42,267.31,23,264.48,18.33Z"/><path class="cls-2" d="M301.48,35C298.66,30.29,280,18,262.34,36.61c-14.49,15.26-8.52,44.89-5.93,54.94a4.56,4.56,0,0,0,.34.88c-1.51,0-2.91.7-2.07,3.88a1.69,1.69,0,0,0,1.87,1.23c1.35-.19,3.17-.79,3.33-2.68A4.57,4.57,0,0,0,261,95c8.16-.28,28.18-2.53,40.49-17.35C317.22,58.67,304.31,39.7,301.48,35Z"/><path class="cls-6" d="M164.63,45.26c-4-3.8-25.21-10.72-37.35,11.8-10,18.52,3.53,45.55,8.65,54.58a4.56,4.56,0,0,0,.56.76c-1.47.37-2.62,1.44-1,4.29a1.69,1.69,0,0,0,2.12.7c1.25-.53,2.85-1.6,2.51-3.45a4.57,4.57,0,0,0,1.12-.18c7.8-2.4,26.54-9.82,34.53-27.34C186,64,168.59,49.07,164.63,45.26Z"/><path class="cls-5" d="M131.32,97.72c-4-3.81-25.2-10.74-37.36,11.78C84,128,97.46,155,102.57,164.08a4.56,4.56,0,0,0,.56.76c-1.47.37-2.62,1.43-1,4.29a1.69,1.69,0,0,0,2.12.7c1.25-.53,2.85-1.59,2.51-3.45a4.57,4.57,0,0,0,1.12-.18c7.8-2.4,26.55-9.8,34.55-27.32C152.69,116.46,135.28,101.53,131.32,97.72Z"/><path class="cls-7" d="M344,60.66c-2.82-4.71-21.52-16.95-39.14,1.61-14.49,15.26-8.52,44.89-5.93,54.94a4.56,4.56,0,0,0,.34.88c-1.51,0-2.91.7-2.07,3.88a1.69,1.69,0,0,0,1.87,1.23c1.35-.19,3.17-.79,3.33-2.68a4.57,4.57,0,0,0,1.13.12c8.16-.28,28.18-2.53,40.49-17.35C359.71,84.33,346.8,65.37,344,60.66Z"/><path class="cls-2" d="M72.55,132.73c-5.24-1.63-27.34,1.7-28.11,27.28C43.8,181,68,199.16,76.61,204.94a4.56,4.56,0,0,0,.84.43c-1.15,1-1.7,2.46,1,4.27a1.69,1.69,0,0,0,2.21-.33c.88-1,1.84-2.7.7-4.21a4.57,4.57,0,0,0,.92-.67c5.9-5.64,19.34-20.66,18.63-39.91C100.06,139.9,77.79,134.36,72.55,132.73Z"/><path class="cls-7" d="M81.55,179.75c-5.49.13-25.36,10.35-17.92,34.84,6.12,20.13,34.83,29.57,44.85,32.28a4.56,4.56,0,0,0,.94.14c-.77,1.3-.83,2.87,2.35,3.72a1.69,1.69,0,0,0,2-1c.5-1.27.88-3.15-.69-4.21a4.57,4.57,0,0,0,.66-.93c3.79-7.23,11.72-25.76,4.9-43.77C109.91,177.75,87,179.62,81.55,179.75Z"/><path class="cls-5" d="M361.81,108.11c-2.82-4.71-21.52-16.95-39.14,1.61-14.49,15.26-8.52,44.89-5.93,54.94a4.56,4.56,0,0,0,.34.88c-1.51,0-2.91.7-2.07,3.88a1.69,1.69,0,0,0,1.87,1.23c1.35-.19,3.17-.79,3.33-2.68a4.57,4.57,0,0,0,1.13.12c8.16-.28,28.18-2.53,40.49-17.35C377.54,131.78,364.63,112.82,361.81,108.11Z"/><path class="cls-7" d="M216.72,57.33c-2.82-4.71-21.52-16.95-39.14,1.61-14.49,15.26-8.52,44.89-5.93,54.94a4.56,4.56,0,0,0,.34.88c-1.51,0-2.91.7-2.07,3.88a1.69,1.69,0,0,0,1.87,1.23c1.35-.19,3.17-.79,3.33-2.68a4.57,4.57,0,0,0,1.13.12c8.16-.28,28.18-2.53,40.49-17.35C232.46,81,219.55,62,216.72,57.33Z"/><path class="cls-7" d="M232.18,98.22c-2.82-4.71-21.52-16.95-39.14,1.61-14.49,15.26-8.52,44.89-5.93,54.94a4.56,4.56,0,0,0,.34.88c-1.51,0-2.91.7-2.07,3.88a1.69,1.69,0,0,0,1.87,1.23c1.35-.19,3.17-.79,3.33-2.68a4.57,4.57,0,0,0,1.13.12c8.16-.28,28.18-2.53,40.49-17.35C247.92,121.9,235,102.93,232.18,98.22Z"/><path class="cls-4" d="M297.89,60.92c-3.43-4.29-23.6-13.9-38.57,6.86C247,84.84,256.91,113.4,260.81,123a4.56,4.56,0,0,0,.45.83c-1.5.18-2.79,1.08-1.53,4.12a1.69,1.69,0,0,0,2,1c1.31-.37,3-1.21,2.94-3.1a4.57,4.57,0,0,0,1.14,0c8-1.37,27.59-6.29,37.79-22.63C316.66,82.26,301.32,65.2,297.89,60.92Z"/><path class="cls-2" d="M291.06,105.33c-2.82-4.71-21.52-16.95-39.14,1.61-14.49,15.26-8.52,44.89-5.93,54.94a4.56,4.56,0,0,0,.34.88c-1.51,0-2.91.7-2.07,3.88a1.69,1.69,0,0,0,1.87,1.23c1.35-.19,3.17-.79,3.33-2.68a4.57,4.57,0,0,0,1.13.12c8.16-.28,28.18-2.53,40.49-17.35C306.8,129,293.88,110,291.06,105.33Z"/><polyline class="cls-1" points="215.98 257.11 171.55 371.93 185.14 319.68"/><path class="cls-4" d="M230.06,271.33c-2.82-4.71-21.52-16.95-39.14,1.61-14.49,15.26-8.52,44.89-5.93,54.94a4.56,4.56,0,0,0,.34.88c-1.51,0-2.91.7-2.07,3.88a1.69,1.69,0,0,0,1.87,1.23c1.35-.19,3.17-.79,3.33-2.68a4.57,4.57,0,0,0,1.13.12c8.16-.28,28.18-2.53,40.49-17.35C245.8,295,232.89,276,230.06,271.33Z"/><path class="cls-2" d="M167.18,98.25C163,94.68,141.4,89,130.57,112.19c-8.9,19.07,6.15,45.27,11.79,54a4.56,4.56,0,0,0,.6.73c-1.44.46-2.53,1.58-.74,4.34a1.69,1.69,0,0,0,2.16.57c1.22-.61,2.76-1.76,2.31-3.59a4.57,4.57,0,0,0,1.11-.25c7.65-2.85,25.93-11.33,32.9-29.29C189.61,115.72,171.35,101.82,167.18,98.25Z"/><path class="cls-6" d="M128.43,132.46c-4.55-3.07-26.67-6.25-34.78,18-6.67,20,11.28,44.27,17.88,52.29a4.56,4.56,0,0,0,.68.66c-1.38.62-2.34,1.86-.24,4.39a1.69,1.69,0,0,0,2.21.32c1.14-.74,2.54-2.06,1.88-3.83a4.57,4.57,0,0,0,1.08-.37c7.27-3.7,24.47-14.22,29.34-32.86C152.71,147.25,133,135.53,128.43,132.46Z"/><path class="cls-4" d="M120.3,195.1c-5.36-1.19-27.1,4-25.75,29.52,1.11,21,26.73,37.06,35.8,42.1a4.56,4.56,0,0,0,.87.36c-1.06,1.08-1.49,2.59,1.39,4.17a1.69,1.69,0,0,0,2.18-.51c.79-1.11,1.61-2.85.34-4.26a4.57,4.57,0,0,0,.86-.74c5.41-6.11,17.55-22.2,15.25-41.32C148.3,200,125.66,196.29,120.3,195.1Z"/><path class="cls-6" d="M259.72,72.66C256.9,68,238.2,55.71,220.58,74.28c-14.49,15.26-8.52,44.89-5.93,54.94a4.56,4.56,0,0,0,.34.88c-1.51,0-2.91.7-2.07,3.88a1.69,1.69,0,0,0,1.87,1.23c1.35-.19,3.17-.79,3.33-2.68a4.57,4.57,0,0,0,1.13.12c8.16-.28,28.18-2.53,40.49-17.35C275.46,96.33,262.55,77.37,259.72,72.66Z"/><path class="cls-5" d="M250.72,126c-2.82-4.71-21.52-16.95-39.14,1.61-14.49,15.26-8.52,44.89-5.93,54.94a4.56,4.56,0,0,0,.34.88c-1.51,0-2.91.7-2.07,3.88a1.69,1.69,0,0,0,1.87,1.23c1.35-.19,3.17-.79,3.33-2.68a4.57,4.57,0,0,0,1.13.12c8.16-.28,28.18-2.53,40.49-17.35C266.46,149.68,253.55,130.71,250.72,126Z"/><path class="cls-3" d="M325.54,95.87c-2.82-4.71-21.52-16.95-39.14,1.61-14.49,15.26-8.52,44.89-5.93,54.94a4.56,4.56,0,0,0,.34.88c-1.51,0-2.91.7-2.07,3.88a1.69,1.69,0,0,0,1.87,1.23c1.35-.19,3.17-.79,3.33-2.68a4.57,4.57,0,0,0,1.13.12c8.16-.28,28.18-2.53,40.49-17.35C341.27,119.55,328.36,100.58,325.54,95.87Z"/><path class="cls-7" d="M293.06,148.34c-2.82-4.71-21.52-16.95-39.14,1.61-14.49,15.26-8.52,44.89-5.93,54.94a4.56,4.56,0,0,0,.34.88c-1.51,0-2.91.7-2.07,3.88a1.69,1.69,0,0,0,1.87,1.23c1.35-.19,3.17-.79,3.33-2.68a4.57,4.57,0,0,0,1.13.12c8.16-.28,28.18-2.53,40.49-17.35C308.8,172,295.88,153,293.06,148.34Z"/><path class="cls-6" d="M280.89,198.83c-2.82-4.71-21.52-16.95-39.14,1.61-14.49,15.26-8.52,44.89-5.93,54.94a4.56,4.56,0,0,0,.34.88c-1.51,0-2.91.7-2.07,3.88a1.69,1.69,0,0,0,1.87,1.23c1.35-.19,3.17-.79,3.33-2.68a4.57,4.57,0,0,0,1.13.12c8.16-.28,28.18-2.53,40.49-17.35C296.62,222.5,283.71,203.54,280.89,198.83Z"/><path class="cls-6" d="M333.72,135c-2.82-4.71-21.52-16.95-39.14,1.61-14.49,15.26-8.52,44.89-5.93,54.94a4.56,4.56,0,0,0,.34.88c-1.51,0-2.91.7-2.07,3.88a1.69,1.69,0,0,0,1.87,1.23c1.35-.19,3.17-.79,3.33-2.68a4.57,4.57,0,0,0,1.13.12c8.16-.28,28.18-2.53,40.49-17.35C349.46,158.68,336.54,139.71,333.72,135Z"/><path class="cls-4" d="M358.79,153.89c-2.82-4.71-21.52-16.95-39.14,1.61-14.49,15.26-8.52,44.89-5.93,54.94a4.56,4.56,0,0,0,.34.88c-1.51,0-2.91.7-2.07,3.88a1.69,1.69,0,0,0,1.87,1.23c1.35-.19,3.17-.79,3.33-2.68a4.57,4.57,0,0,0,1.13.12c8.16-.28,28.18-2.53,40.49-17.35C374.53,177.56,361.62,158.6,358.79,153.89Z"/><path class="cls-3" d="M321.15,194.89c-2.82-4.71-21.52-16.95-39.14,1.61-14.49,15.26-8.52,44.89-5.93,54.94a4.56,4.56,0,0,0,.34.88c-1.51,0-2.91.7-2.07,3.88a1.69,1.69,0,0,0,1.87,1.23c1.35-.19,3.17-.79,3.33-2.68a4.57,4.57,0,0,0,1.13.12c8.16-.28,28.18-2.53,40.49-17.35C336.88,218.56,324,199.6,321.15,194.89Z"/><path class="cls-2" d="M293.06,224.78c-2.82-4.71-21.52-16.95-39.14,1.61-14.49,15.26-8.52,44.89-5.93,54.94a4.56,4.56,0,0,0,.34.88c-1.51,0-2.91.7-2.07,3.88a1.69,1.69,0,0,0,1.87,1.23c1.35-.19,3.17-.79,3.33-2.68a4.57,4.57,0,0,0,1.13.12c8.16-.28,28.18-2.53,40.49-17.35C308.8,248.46,295.88,229.49,293.06,224.78Z"/><path class="cls-4" d="M208.8,116.21c-3.51-4.22-23.84-13.49-38.44,7.53-12,17.28-1.61,45.66,2.47,55.21a4.56,4.56,0,0,0,.47.82c-1.5.2-2.77,1.13-1.46,4.15a1.69,1.69,0,0,0,2,.93c1.31-.39,3-1.27,2.88-3.15a4.57,4.57,0,0,0,1.14-.05c8-1.51,27.48-6.77,37.39-23.29C227.95,137.22,212.31,120.44,208.8,116.21Z"/><path class="cls-3" d="M213.72,176.22c-2.82-4.71-21.52-16.95-39.14,1.61-14.49,15.26-8.52,44.89-5.93,54.94a4.56,4.56,0,0,0,.34.88c-1.51,0-2.91.7-2.07,3.88a1.69,1.69,0,0,0,1.87,1.23c1.35-.19,3.17-.79,3.33-2.68a4.57,4.57,0,0,0,1.13.12c8.16-.28,28.18-2.53,40.49-17.35C229.46,199.9,216.55,180.93,213.72,176.22Z"/><path class="cls-2" d="M241.65,163.46c-3.68-4.07-24.39-12.47-38.09,9.14-11.27,17.77.31,45.69,4.78,55.05a4.56,4.56,0,0,0,.5.8c-1.49.27-2.72,1.25-1.29,4.21a1.69,1.69,0,0,0,2.07.85c1.29-.44,3-1.39,2.75-3.27a4.57,4.57,0,0,0,1.13-.1c8-1.85,27.17-7.92,36.37-24.84C261.66,183.65,245.33,167.53,241.65,163.46Z"/><path class="cls-7" d="M228.48,212c-2.82-4.71-21.52-16.95-39.14,1.61-14.49,15.26-8.52,44.89-5.93,54.94a4.56,4.56,0,0,0,.34.88c-1.51,0-2.91.7-2.07,3.88a1.69,1.69,0,0,0,1.87,1.23c1.35-.19,3.17-.79,3.33-2.68A4.57,4.57,0,0,0,188,272c8.16-.28,28.18-2.53,40.49-17.35C244.22,235.72,231.31,216.76,228.48,212Z"/><path class="cls-5" d="M258.15,231.89c-2.82-4.71-21.52-16.95-39.14,1.61-14.49,15.26-8.52,44.89-5.93,54.94a4.56,4.56,0,0,0,.34.88c-1.51,0-2.91.7-2.07,3.88a1.69,1.69,0,0,0,1.87,1.23c1.35-.19,3.17-.79,3.33-2.68a4.57,4.57,0,0,0,1.13.12c8.16-.28,28.18-2.53,40.49-17.35C273.89,255.56,261,236.6,258.15,231.89Z"/><path class="cls-7" d="M153.26,146c-4.74-2.77-27-4.51-33.54,20.24-5.36,20.35,14.12,43.45,21.21,51a4.56,4.56,0,0,0,.72.61c-1.34.71-2.21,2,0,4.4a1.69,1.69,0,0,0,2.23.18c1.09-.81,2.4-2.22,1.63-3.95a4.57,4.57,0,0,0,1-.44c7-4.16,23.5-15.77,27.16-34.68C178.44,159.21,158,148.79,153.26,146Z"/><polyline class="cls-1" points="213.41 289.33 171.55 371.93 181.39 310.63"/><path class="cls-2" d="M173.21,200.69c-4.57-3-26.71-6.08-34.67,18.25-6.54,20,11.56,44.2,18.2,52.18a4.56,4.56,0,0,0,.68.65c-1.38.63-2.33,1.88-.21,4.39a1.69,1.69,0,0,0,2.21.31c1.14-.75,2.52-2.08,1.86-3.85a4.57,4.57,0,0,0,1.07-.38c7.25-3.75,24.38-14.37,29.13-33C197.58,215.33,177.78,203.73,173.21,200.69Z"/><path class="cls-6" d="M173.56,238.24c-5.3-1.42-27.25,2.8-27,28.4.21,21,25.12,38.16,34,43.59a4.56,4.56,0,0,0,.86.4c-1.11,1-1.6,2.52,1.21,4.23a1.69,1.69,0,0,0,2.2-.42c.84-1.07,1.73-2.78.53-4.24a4.57,4.57,0,0,0,.89-.7c5.67-5.88,18.48-21.43,17-40.63C201.33,244.29,178.86,239.66,173.56,238.24Z"/><path class="cls-8" d="M172.55,372.63c-6.33,23.56,2,46.88,7.25,53.75s20.75,26.25,15.38,30.44-9.37-.19-9.37-.19,6-7-9-31.12c-12.78-20.56-7.29-45.75-5.39-52.75Z"/><line class="cls-1" x1="166.77" y1="305.74" x2="171.87" y2="369.62"/><line class="cls-1" x1="151.53" y1="297.99" x2="171.97" y2="370.64"/><path class="cls-5" d="M122.33,248.06c-5.26,1.56-21.79,16.6-8.22,38.3,11.16,17.84,41.33,19.47,51.71,19.48a4.56,4.56,0,0,0,.94-.11c-.4,1.46,0,3,3.24,3a1.69,1.69,0,0,0,1.66-1.5c.16-1.35,0-3.27-1.76-3.89a4.57,4.57,0,0,0,.4-1.07c1.77-8,4.6-27.92-6.68-43.54C149.19,238.74,127.6,246.5,122.33,248.06Z"/></g><g id="Katy"><path class="cls-9" d="M83,487.41a22.7,22.7,0,0,0-1.15-2.26c-.82-1.41-1.68-2.78-2.52-4.18-.49-.83-1-1.67-1.48-2.6l-.31-.75c-.14-.33-.27-.59-.37-.85-.19-.49-.35-1-.57-1.48a30.94,30.94,0,0,1-1.76-5.15c-.54-2-.86-4.14-1.2-6.23-.16-.93-.27-1.88-.47-2.8-.31-1.42-.69-2.83-1-4.25a23.2,23.2,0,0,0-1.55-4.44A34.17,34.17,0,0,0,68,447.81a42.34,42.34,0,0,0-3.36-4.47,18.72,18.72,0,0,0-2.74-2.57,16.91,16.91,0,0,0-1.83-1.33,61.48,61.48,0,0,0-5.52-3.08,7.67,7.67,0,0,0-3.66-.85.62.62,0,0,1-.65-.36,2.85,2.85,0,0,0-1-1.16c-.75-.39-1.48-.81-2.25-1.13a19.84,19.84,0,0,0-4.81-1.26,17.66,17.66,0,0,0-6.55.23,32.5,32.5,0,0,0-5.06,1.66c-1.17.49-2.36,1-3.52,1.49s-2.57,1.17-3.82,1.83c-1.07.56-2.09,1.21-3.13,1.83-.64.38-1.28.76-1.91,1.18s-1.36.95-2,1.44-1.47,1.07-2.18,1.63c-.37.29-.69.63-1,.95-.85.78-1.73,1.53-2.54,2.35s-1.57,1.7-2.36,2.56a2.17,2.17,0,0,0-.2.3c-.82,1.28-1.65,2.56-2.45,3.86a15.46,15.46,0,0,0-1.18,2.18c-.94,2.29-1.82,4.61-2.73,6.92a24.12,24.12,0,0,0-1,3.74c-.11.5-.14,1-.25,1.52A11.14,11.14,0,0,0,0,470c0,1.17.18,2.34.21,3.51a8,8,0,0,0,.47,2.34c.47,1.39.86,2.82,1.38,4.19.45,1.2,1,2.34,1.55,3.5s1.19,2.62,1.8,3.93a30.15,30.15,0,0,1,1.67,4.66c.41,1.45.66,3,1,4.44.53,2.39.72,4.84,1,7.27a12.81,12.81,0,0,0,.67,3.31,5.34,5.34,0,0,0,1,1.77,3,3,0,0,0,2.33.88,8,8,0,0,0,2-.41,13,13,0,0,0,4.46-2c.59-.44,1.11-1,1.69-1.44,1.23-1,2.47-2,3.7-2.93a4.13,4.13,0,0,1,2-.93A8.63,8.63,0,0,0,31,500.52s23.72-6.34,23.85-6.35l3.54,1.17c.74.25,1.41.51,2.1.69a11.34,11.34,0,0,0,4.15.21,6.73,6.73,0,0,0,2.63-.61q1.35-.76,2.66-1.6a8.33,8.33,0,0,1,3.94-1.55,19.44,19.44,0,0,1,2.08,0,14.08,14.08,0,0,0,4.36-.4,3.36,3.36,0,0,0,2.26-1.87c.06-.13.14-.24.21-.37A2.71,2.71,0,0,0,83,487.41Z"/><ellipse class="cls-10" cx="40.99" cy="465.2" rx="34.16" ry="23.25" transform="translate(-108.71 22.84) rotate(-13.66)"/><path class="cls-9" d="M50.9,435.53l-7.14,3.42L16,445.61,3.68,463.36l4.08,19.58,11.91,9a47.33,47.33,0,0,1-5.53-30.14,1.86,1.86,0,0,1,1.12-1.51c16.17-6.9,38.86-17.65,53.09-12.23C68.36,436.61,50.9,435.53,50.9,435.53Z"/><ellipse class="cls-9" cx="39.24" cy="461.76" rx="2.19" ry="3.37" transform="translate(-174.68 50.66) rotate(-22.63)"/><ellipse class="cls-9" cx="61.65" cy="455.31" rx="2.19" ry="3.38" transform="translate(-170.47 58.79) rotate(-22.63)"/><ellipse id="L_Foot" data-name="L Foot" class="cls-8" cx="52.12" cy="585.23" rx="4.14" ry="7.42" transform="translate(-163.25 38.58) rotate(-16.41)"/><path id="R_foot" data-name="R foot" class="cls-8" d="M72.07,576.82c2.18,3.47,2.37,7.27.43,8.48s-4.53-1.21-7.45-4.08c-.68-.67-2.15-1.36-2.44-2.2a5.71,5.71,0,0,1,2-6.28C66.56,571.52,69.9,573.35,72.07,576.82Z"/><path id="Dress" class="cls-8" d="M66.2,511.27c-9.72-7.61-4.44-7.43-2.75-13.41,1.17-4.13,3.71-9.29-.73-11.44-9.23-4.47-25.29,2-26.53,10.19a31.86,31.86,0,0,0,7,10.5c2.75,2.76,4.44,5.26-3.38,10.33s-8.24,30.26-12,43.31S22.45,575.6,14,584.66s-1.06,8,2.32,7.43,57.49-10.69,62.35-29.72S75.92,518.88,66.2,511.27Z"/><circle id="L_hand" data-name="L hand" class="cls-10" cx="18.22" cy="529.99" r="3.71"/><circle id="R_HAnd" data-name="R HAnd" class="cls-10" cx="95.39" cy="458.69" r="3.71"/><path id="Left_arm" data-name="Left arm" class="cls-11" d="M36.71,489.16s-1,16.48-18.14,40.82"/><path id="Right_arm" data-name="Right arm" class="cls-11" d="M56.62,484.17s24.73-5.56,38.77-23.94"/><path id="Chest" class="cls-10" d="M52.87,491.72c.27.4.34.34.43-.12a6.86,6.86,0,0,1,9.42-5.18c-1.68-1.42-4.49-2.65-9-3.6-14.58-3.08-14.37,2.94-14.37,2.94s-4.28,3.39-3.65,8.83a8.85,8.85,0,0,0,.48,2C38.74,492.33,46.62,482.48,52.87,491.72Z"/></g><g id="Chris"><ellipse class="cls-9" cx="131.62" cy="504.56" rx="6.52" ry="10.75" transform="translate(-115.44 45.36) rotate(-13.66)"/><ellipse class="cls-9" cx="150.65" cy="499.94" rx="6.52" ry="10.75" transform="translate(-113.81 49.72) rotate(-13.66)"/><path id="Trousers" class="cls-9" d="M125.43,457.25s5.12,24.63-3.44,40.19c0,0,1.81,4.94,13.94,0,0,0,3.06-17.94,3-22.75s1.88-8.25,3.63-8.25,3.06,10.56-1.94,27.75c0,0,4.06,3.94,11.94-2.87,0,0,2.38-25.56.69-41.62Z"/><path id="shirt" class="cls-8" d="M115.4,419.25s7.34,20.63,10,38c22.56-.37,27.81-7.56,27.81-7.56s-4.63-26.44-12.56-42.25S115.4,419.25,115.4,419.25Z"/><path id="Left_arm-2" data-name="Left arm" class="cls-12" d="M118,417.83s-3.87,12.75-19.52,37.68"/><path id="Right_arm-2" data-name="Right arm" class="cls-12" d="M136.49,409.7s20.73-9,35.06-37.78"/><circle id="L_hand-2" data-name="L hand" class="cls-10" cx="98.09" cy="455.52" r="3.71"/><circle id="R_HAnd-2" data-name="R HAnd" class="cls-10" cx="171.55" cy="371.93" r="3.71"/><path class="cls-10" d="M79.1,403.31c5.94,15.32,27,21.45,47,13.68s31.48-26.48,25.54-41.8S125,355.24,104.93,363,73.16,388,79.1,403.31Z"/><path class="cls-9" d="M152.81,379.12s-2.42-4.12-8.59-3.2-12.92-5.25-15.17-8.08S106,380.67,100.8,383.75,81.14,390,81.14,390s-2.19,11.14-1.51,14.55c0,0-10.9-23.64,2.26-41.64,0,0,14.4-.26,34.83-5.5s36,12.71,36.09,21.7"/><ellipse class="cls-9" cx="97.28" cy="408.56" rx="2.19" ry="3.37" transform="translate(-149.74 68.9) rotate(-22.63)"/><ellipse class="cls-9" cx="118.69" cy="400.12" rx="2.19" ry="3.37" transform="translate(-144.84 76.49) rotate(-22.63)"/><polygon id="Belt" class="cls-1" points="144.68 453.38 144.68 458.31 138.93 459.88 137.99 455 144.68 453.38"/><path class="cls-9" d="M131.62,414.81s-.37,4.44-1.44,6.13l5.25,1.88,1.22-.41a6.89,6.89,0,0,1,1.28-3.27A60.61,60.61,0,0,1,131.62,414.81Z"/><path class="cls-9" d="M116.93,450l.33-.12c.14-.05,14.3-5.24,17.92-26l0-.28,2.14-.81.11.59c0,.23,4.11,23.33-19.85,33.86l-.7.31Z"/><path class="cls-8" d="M137,423.5s4.31,22.81-19.56,33.31v-6.44S132,445.31,135.68,424l1.31-.5m.76-1.36-1.12.43-1.31.5-.53.2-.1.56c-3.56,20.43-17.46,25.55-17.6,25.6l-.67.24v8.68l1.4-.62c12.69-5.58,17.5-14.64,19.3-21.25a32,32,0,0,0,.85-13.17l-.22-1.17Z"/></g></g></svg>