<?xml version="1.0" encoding="UTF-8"?>
<svg width="371px" height="595px" viewBox="0 0 371 595" version="1.1" xmlns="http://www.w3.org/2000/svg" xmlns:xlink="http://www.w3.org/1999/xlink">
    <!-- Generator: Sketch 48.1 (47250) - http://www.bohemiancoding.com/sketch -->
    <title>Asset 1</title>
    <desc>Created with Sketch.</desc>
    <defs></defs>
    <g id="Symbols" stroke="none" stroke-width="1" fill="none" fill-rule="evenodd">
        <g id="Asset-1">
            <g>
                <g id="Baloons" transform="translate(45.000000, 0.000000)">
                    <path d="M128.55,373.63 L206.64,290.33" id="Shape" stroke="#FFFFFF"></path>
                    <path d="M127.41,373.75 L186.3,285.83" id="Shape" stroke="#FFFFFF"></path>
                    <path d="M114.3,299.45 L128.55,373.63" id="Shape" stroke="#FFFFFF"></path>
                    <path d="M126.8,371.64 L131.26,294.5" id="Shape" stroke="#FFFFFF"></path>
                    <path d="M221,258.12 C218.18,253.41 199.48,241.17 181.86,259.73 C167.37,274.99 173.34,304.62 175.93,314.67 C176.012604,314.974299 176.126547,315.269211 176.27,315.55 C174.76,315.55 173.36,316.25 174.2,319.43 C174.423598,320.253173 175.225579,320.78068 176.07,320.66 C177.42,320.47 179.24,319.87 179.4,317.98 C179.770207,318.066857 180.149808,318.107168 180.53,318.1 C188.69,317.82 208.71,315.57 221.02,300.75 C236.71,281.79 223.8,262.82 221,258.12 Z" id="Shape" fill="#ACCA3B" fill-rule="nonzero"></path>
                    <path d="M119.91,15.44 C117.08,10.73 98.39,-1.51 80.77,17 C66.28,32.26 72.25,61.89 74.84,71.94 C74.9226037,72.2442995 75.0365467,72.5392106 75.18,72.82 C73.67,72.82 72.27,73.52 73.11,76.7 C73.3044173,77.5600166 74.1273381,78.1260467 75,78 C76.35,77.81 78.17,77.21 78.33,75.32 C78.7002073,75.4068566 79.0798078,75.4471682 79.46,75.44 C87.62,75.16 107.64,72.91 119.95,58.09 C135.64,39.11 122.73,20.14 119.91,15.44 Z" id="Shape" fill="#6D8CC8" fill-rule="nonzero"></path>
                    <path d="M118,261.95 C112.53,261.45 91.61,269.29 96.17,294.48 C99.92,315.19 127.35,327.88 136.98,331.74 C137.273871,331.854582 137.578837,331.938364 137.89,331.99 C136.97,333.2 136.74,334.75 139.79,335.99 C140.586531,336.297921 141.487612,335.963234 141.89,335.21 C142.54,334.01 143.12,332.21 141.7,330.94 C141.98719,330.692602 142.242484,330.410435 142.46,330.1 C147.06,323.36 157.08,305.87 152.39,287.19 C146.35,263.24 123.42,262.45 118,261.95 Z" id="Shape" fill="#6D8CC8" fill-rule="nonzero"></path>
                    <path d="M44.24,84.51 C39.5,81.74 17.24,80.01 10.7,104.76 C5.34,125.11 24.83,148.21 31.93,155.76 C32.1482583,155.987686 32.38955,156.192114 32.65,156.37 C31.31,157.08 30.44,158.37 32.65,160.77 C33.2415421,161.383853 34.1976602,161.461029 34.88,160.95 C35.97,160.14 37.28,158.73 36.51,157 C36.8597285,156.893848 37.1954603,156.746126 37.51,156.56 C44.51,152.39 61,140.78 64.65,121.87 C69.43,97.7 49,87.28 44.24,84.51 Z" id="Shape" fill="#EA4E93" fill-rule="nonzero"></path>
                    <path d="M167.15,9.33 C164.33,4.62 145.63,-7.62 128,10.94 C113.51,26.2 119.48,55.83 122.07,65.88 C122.152604,66.1842995 122.266547,66.4792106 122.41,66.76 C120.9,66.76 119.5,67.46 120.34,70.64 C120.563598,71.4631732 121.365579,71.9906796 122.21,71.87 C123.56,71.68 125.38,71.08 125.54,69.19 C125.910207,69.2768566 126.289808,69.3171682 126.67,69.31 C134.83,69.03 154.85,66.78 167.16,51.96 C182.89,33 170,14 167.15,9.33 Z" id="Shape" fill="#EA4E93" fill-rule="nonzero"></path>
                    <path d="M181,2.67 C175.66,2.5 153.81,-0.63 148.39,24.38 C143.94,44.95 164.39,67.16 171.86,74.38 C172.089168,74.5988684 172.340526,74.7932521 172.61,74.96 C171.3,75.72 170.49,77.07 172.85,79.35 C173.467569,79.933369 174.422216,79.9676164 175.08,79.43 C176.14,78.57 177.38,77.1 176.53,75.43 C176.882062,75.3080418 177.217888,75.1434871 177.53,74.94 C184.36,70.47 200.3,58.14 203.11,39.08 C206.76,14.72 186.36,2.83 181,2.67 Z" id="Shape" fill="#FAEA4A" fill-rule="nonzero"></path>
                    <path d="M78.24,45.74 C73.97,42.29 52.24,37.23 42.04,60.74 C33.69,80 49.49,105.8 55.37,114.35 C55.5515853,114.607449 55.7593617,114.845386 55.99,115.06 C54.56,115.56 53.5,116.72 55.38,119.42 C55.8737066,120.115979 56.8087865,120.334737 57.56,119.93 C58.76,119.29 60.26,118.09 59.76,116.27 C60.1368778,116.222742 60.506394,116.128683 60.86,115.99 C68.43,112.92 86.46,103.92 92.86,85.77 C101.16,62.55 82.52,49.19 78.24,45.74 Z" id="Shape" fill="#FAEA4A" fill-rule="nonzero"></path>
                    <path d="M220.48,19.33 C217.66,14.62 198.96,2.38 181.34,20.94 C166.85,36.2 172.82,65.83 175.41,75.88 C175.492604,76.1842995 175.606547,76.4792106 175.75,76.76 C174.24,76.76 172.84,77.46 173.68,80.64 C173.903598,81.4631732 174.705579,81.9906796 175.55,81.87 C176.9,81.68 178.72,81.08 178.88,79.19 C179.250207,79.2768566 179.629808,79.3171682 180.01,79.31 C188.17,79.03 208.19,76.78 220.5,61.96 C236.22,43 223.31,24 220.48,19.33 Z" id="Shape" fill="#EA4D50" fill-rule="nonzero"></path>
                    <path d="M257.48,36 C254.66,31.29 236,19 218.34,37.61 C203.85,52.87 209.82,82.5 212.41,92.55 C212.492604,92.8542995 212.606547,93.1492106 212.75,93.43 C211.24,93.43 209.84,94.13 210.68,97.31 C210.903598,98.1331732 211.705579,98.6606796 212.55,98.54 C213.9,98.35 215.72,97.75 215.88,95.86 C216.246114,95.9527682 216.622316,95.9997934 217,96 C225.16,95.72 245.18,93.47 257.49,78.65 C273.22,59.67 260.31,40.7 257.48,36 Z" id="Shape" fill="#6D8CC8" fill-rule="nonzero"></path>
                    <path d="M120.63,46.26 C116.63,42.46 95.42,35.54 83.28,58.06 C73.28,76.58 86.81,103.61 91.93,112.64 C92.0898702,112.912025 92.2775423,113.166723 92.49,113.4 C91.02,113.77 89.87,114.84 91.49,117.69 C91.9200255,118.423331 92.8278557,118.723086 93.61,118.39 C94.86,117.86 96.46,116.79 96.12,114.94 C96.49936,114.926747 96.875591,114.866282 97.24,114.76 C105.04,112.36 123.78,104.94 131.77,87.42 C142,65 124.59,50.07 120.63,46.26 Z" id="Shape" fill="#ACCA3B" fill-rule="nonzero"></path>
                    <path d="M87.32,98.72 C83.32,94.91 62.12,87.98 49.96,110.5 C40,129 53.46,156 58.57,165.08 C58.7298702,165.352025 58.9175423,165.606723 59.13,165.84 C57.66,166.21 56.51,167.27 58.13,170.13 C58.5600255,170.863331 59.4678557,171.163086 60.25,170.83 C61.5,170.3 63.1,169.24 62.76,167.38 C63.13936,167.366747 63.515591,167.306282 63.88,167.2 C71.68,164.8 90.43,157.4 98.43,139.88 C108.69,117.46 91.28,102.53 87.32,98.72 Z" id="Shape" fill="#EA4D50" fill-rule="nonzero"></path>
                    <path d="M300,61.66 C297.18,56.95 278.48,44.71 260.86,63.27 C246.37,78.53 252.34,108.16 254.93,118.21 C255.012604,118.514299 255.126547,118.809211 255.27,119.09 C253.76,119.09 252.36,119.79 253.2,122.97 C253.423598,123.793173 254.225579,124.32068 255.07,124.2 C256.42,124.01 258.24,123.41 258.4,121.52 C258.770207,121.606857 259.149808,121.647168 259.53,121.64 C267.69,121.36 287.71,119.11 300.02,104.29 C315.71,85.33 302.8,66.37 300,61.66 Z" id="Shape" fill="#F59F4F" fill-rule="nonzero"></path>
                    <path d="M28.55,133.73 C23.31,132.1 1.21,135.43 0.44,161.01 C-0.2,182 24,200.16 32.61,205.94 C32.8743756,206.111998 33.1558826,206.256102 33.45,206.37 C32.3,207.37 31.75,208.83 34.45,210.64 C35.1646686,211.102176 36.111521,210.960791 36.66,210.31 C37.54,209.31 38.5,207.61 37.36,206.1 C37.6933867,205.915874 38.0024495,205.690796 38.28,205.43 C44.18,199.79 57.62,184.77 56.91,165.52 C56.06,140.9 33.79,135.36 28.55,133.73 Z" id="Shape" fill="#6D8CC8" fill-rule="nonzero"></path>
                    <path d="M37.55,180.75 C32.06,180.88 12.19,191.1 19.63,215.59 C25.75,235.72 54.46,245.16 64.48,247.87 C64.7876018,247.94928 65.1026457,247.996201 65.42,248.01 C64.65,249.31 64.59,250.88 67.77,251.73 C68.5934199,251.948384 69.4506555,251.519766 69.77,250.73 C70.27,249.46 70.65,247.58 69.08,246.52 C69.3379674,246.238773 69.5596932,245.926341 69.74,245.59 C73.53,238.36 81.46,219.83 74.64,201.82 C65.91,178.75 43,180.62 37.55,180.75 Z" id="Shape" fill="#F59F4F" fill-rule="nonzero"></path>
                    <path d="M317.81,109.11 C314.99,104.4 296.29,92.16 278.67,110.72 C264.18,125.98 270.15,155.61 272.74,165.66 C272.822604,165.964299 272.936547,166.259211 273.08,166.54 C271.57,166.54 270.17,167.24 271.01,170.42 C271.233598,171.243173 272.035579,171.77068 272.88,171.65 C274.23,171.46 276.05,170.86 276.21,168.97 C276.580207,169.056857 276.959808,169.097168 277.34,169.09 C285.5,168.81 305.52,166.56 317.83,151.74 C333.54,132.78 320.63,113.82 317.81,109.11 Z" id="Shape" fill="#EA4D50" fill-rule="nonzero"></path>
                    <path d="M172.72,58.33 C169.9,53.62 151.2,41.38 133.58,59.94 C119.09,75.2 125.06,104.83 127.65,114.88 C127.732604,115.184299 127.846547,115.479211 127.99,115.76 C126.48,115.76 125.08,116.46 125.92,119.64 C126.143598,120.463173 126.945579,120.99068 127.79,120.87 C129.14,120.68 130.96,120.08 131.12,118.19 C131.490207,118.276857 131.869808,118.317168 132.25,118.31 C140.41,118.03 160.43,115.78 172.74,100.96 C188.46,82 175.55,63 172.72,58.33 Z" id="Shape" fill="#F59F4F" fill-rule="nonzero"></path>
                    <path d="M188.18,99.22 C185.36,94.51 166.66,82.27 149.04,100.83 C134.55,116.09 140.52,145.72 143.11,155.77 C143.192604,156.074299 143.306547,156.369211 143.45,156.65 C141.94,156.65 140.54,157.35 141.38,160.53 C141.603598,161.353173 142.405579,161.88068 143.25,161.76 C144.6,161.57 146.42,160.97 146.58,159.08 C146.950207,159.166857 147.329808,159.207168 147.71,159.2 C155.87,158.92 175.89,156.67 188.2,141.85 C203.92,122.9 191,103.93 188.18,99.22 Z" id="Shape" fill="#F59F4F" fill-rule="nonzero"></path>
                    <path d="M253.89,61.92 C250.46,57.63 230.29,48.02 215.32,68.78 C203,85.84 212.91,114.4 216.81,124 C216.930877,124.291492 217.081685,124.569649 217.26,124.83 C215.76,125.01 214.47,125.91 215.73,128.95 C216.049345,129.739766 216.90658,130.168384 217.73,129.95 C219.04,129.58 220.73,128.74 220.67,126.85 C221.048511,126.897582 221.431489,126.897582 221.81,126.85 C229.81,125.48 249.4,120.56 259.6,104.22 C272.66,83.26 257.32,66.2 253.89,61.92 Z" id="Shape" fill="#FAEA4A" fill-rule="nonzero"></path>
                    <path d="M247.06,106.33 C244.24,101.62 225.54,89.38 207.92,107.94 C193.43,123.2 199.4,152.83 201.99,162.88 C202.072604,163.184299 202.186547,163.479211 202.33,163.76 C200.82,163.76 199.42,164.46 200.26,167.64 C200.483598,168.463173 201.285579,168.99068 202.13,168.87 C203.48,168.68 205.3,168.08 205.46,166.19 C205.830207,166.276857 206.209808,166.317168 206.59,166.31 C214.75,166.03 234.77,163.78 247.08,148.96 C262.8,130 249.88,111 247.06,106.33 Z" id="Shape" fill="#6D8CC8" fill-rule="nonzero"></path>
                    <polyline id="Shape" stroke="#FFFFFF" points="171.98 258.11 127.55 372.93 141.14 320.68"></polyline>
                    <path d="M186.06,272.33 C183.24,267.62 164.54,255.38 146.92,273.94 C132.43,289.2 138.4,318.83 140.99,328.88 C141.072604,329.184299 141.186547,329.479211 141.33,329.76 C139.82,329.76 138.42,330.46 139.26,333.64 C139.483598,334.463173 140.285579,334.99068 141.13,334.87 C142.48,334.68 144.3,334.08 144.46,332.19 C144.830207,332.276857 145.209808,332.317168 145.59,332.31 C153.75,332.03 173.77,329.78 186.08,314.96 C201.8,296 188.89,277 186.06,272.33 Z" id="Shape" fill="#FAEA4A" fill-rule="nonzero"></path>
                    <path d="M123.18,99.25 C119,95.68 97.4,90 86.57,113.19 C77.67,132.26 92.72,158.46 98.36,167.19 C98.5341803,167.453455 98.7352596,167.698101 98.96,167.92 C97.52,168.38 96.43,169.5 98.22,172.26 C98.6938739,172.966624 99.6191672,173.210799 100.38,172.83 C101.6,172.22 103.14,171.07 102.69,169.24 C103.06897,169.203232 103.441859,169.119248 103.8,168.99 C111.45,166.14 129.73,157.66 136.7,139.7 C145.61,116.72 127.35,102.82 123.18,99.25 Z" id="Shape" fill="#6D8CC8" fill-rule="nonzero"></path>
                    <path d="M84.43,133.46 C79.88,130.39 57.76,127.21 49.65,151.46 C42.98,171.46 60.93,195.73 67.53,203.75 C67.73313,203.993019 67.961027,204.214213 68.21,204.41 C66.83,205.03 65.87,206.27 67.97,208.8 C68.5212492,209.447477 69.4677371,209.584525 70.18,209.12 C71.32,208.38 72.72,207.06 72.06,205.29 C72.4340502,205.212294 72.7968805,205.087991 73.14,204.92 C80.41,201.22 97.61,190.7 102.48,172.06 C108.71,148.25 89,136.53 84.43,133.46 Z" id="Shape" fill="#ACCA3B" fill-rule="nonzero"></path>
                    <path d="M76.3,196.1 C70.94,194.91 49.2,200.1 50.55,225.62 C51.66,246.62 77.28,262.68 86.35,267.72 C86.6268012,267.869698 86.918355,267.990341 87.22,268.08 C86.16,269.16 85.73,270.67 88.61,272.25 C89.3612135,272.654737 90.2962934,272.435979 90.79,271.74 C91.58,270.63 92.4,268.89 91.13,267.48 C91.4462914,267.270013 91.7351838,267.021431 91.99,266.74 C97.4,260.63 109.54,244.54 107.24,225.42 C104.3,201 81.66,197.29 76.3,196.1 Z" id="Shape" fill="#FAEA4A" fill-rule="nonzero"></path>
                    <path d="M215.72,73.66 C212.9,69 194.2,56.71 176.58,75.28 C162.09,90.54 168.06,120.17 170.65,130.22 C170.732604,130.524299 170.846547,130.819211 170.99,131.1 C169.48,131.1 168.08,131.8 168.92,134.98 C169.143598,135.803173 169.945579,136.33068 170.79,136.21 C172.14,136.02 173.96,135.42 174.12,133.53 C174.490207,133.616857 174.869808,133.657168 175.25,133.65 C183.41,133.37 203.43,131.12 215.74,116.3 C231.46,97.33 218.55,78.37 215.72,73.66 Z" id="Shape" fill="#ACCA3B" fill-rule="nonzero"></path>
                    <path d="M206.72,127 C203.9,122.29 185.2,110.05 167.58,128.61 C153.09,143.87 159.06,173.5 161.65,183.55 C161.732604,183.854299 161.846547,184.149211 161.99,184.43 C160.48,184.43 159.08,185.13 159.92,188.31 C160.143598,189.133173 160.945579,189.66068 161.79,189.54 C163.14,189.35 164.96,188.75 165.12,186.86 C165.490207,186.946857 165.869808,186.987168 166.25,186.98 C174.41,186.7 194.43,184.45 206.74,169.63 C222.46,150.68 209.55,131.71 206.72,127 Z" id="Shape" fill="#EA4D50" fill-rule="nonzero"></path>
                    <path d="M281.54,96.87 C278.72,92.16 260.02,79.92 242.4,98.48 C227.91,113.74 233.88,143.37 236.47,153.42 C236.552604,153.724299 236.666547,154.019211 236.81,154.3 C235.3,154.3 233.9,155 234.74,158.18 C234.963598,159.003173 235.765579,159.53068 236.61,159.41 C237.96,159.22 239.78,158.62 239.94,156.73 C240.310207,156.816857 240.689808,156.857168 241.07,156.85 C249.23,156.57 269.25,154.32 281.56,139.5 C297.27,120.55 284.36,101.58 281.54,96.87 Z" id="Shape" fill="#EA4E93" fill-rule="nonzero"></path>
                    <path d="M249.06,149.34 C246.24,144.63 227.54,132.39 209.92,150.95 C195.43,166.21 201.4,195.84 203.99,205.89 C204.072604,206.194299 204.186547,206.489211 204.33,206.77 C202.82,206.77 201.42,207.47 202.26,210.65 C202.483598,211.473173 203.285579,212.00068 204.13,211.88 C205.48,211.69 207.3,211.09 207.46,209.2 C207.830207,209.286857 208.209808,209.327168 208.59,209.32 C216.75,209.04 236.77,206.79 249.08,191.97 C264.8,173 251.88,154 249.06,149.34 Z" id="Shape" fill="#F59F4F" fill-rule="nonzero"></path>
                    <path d="M236.89,199.83 C234.07,195.12 215.37,182.88 197.75,201.44 C183.26,216.7 189.23,246.33 191.82,256.38 C191.902604,256.684299 192.016547,256.979211 192.16,257.26 C190.65,257.26 189.25,257.96 190.09,261.14 C190.313598,261.963173 191.115579,262.49068 191.96,262.37 C193.31,262.18 195.13,261.58 195.29,259.69 C195.660207,259.776857 196.039808,259.817168 196.42,259.81 C204.58,259.53 224.6,257.28 236.91,242.46 C252.62,223.5 239.71,204.54 236.89,199.83 Z" id="Shape" fill="#ACCA3B" fill-rule="nonzero"></path>
                    <path d="M289.72,136 C286.9,131.29 268.2,119.05 250.58,137.61 C236.09,152.87 242.06,182.5 244.65,192.55 C244.732604,192.854299 244.846547,193.149211 244.99,193.43 C243.48,193.43 242.08,194.13 242.92,197.31 C243.143598,198.133173 243.945579,198.66068 244.79,198.54 C246.14,198.35 247.96,197.75 248.12,195.86 C248.490207,195.946857 248.869808,195.987168 249.25,195.98 C257.41,195.7 277.43,193.45 289.74,178.63 C305.46,159.68 292.54,140.71 289.72,136 Z" id="Shape" fill="#ACCA3B" fill-rule="nonzero"></path>
                    <path d="M314.79,154.89 C311.97,150.18 293.27,137.94 275.65,156.5 C261.16,171.76 267.13,201.39 269.72,211.44 C269.802604,211.744299 269.916547,212.039211 270.06,212.32 C268.55,212.32 267.15,213.02 267.99,216.2 C268.213598,217.023173 269.015579,217.55068 269.86,217.43 C271.21,217.24 273.03,216.64 273.19,214.75 C273.560207,214.836857 273.939808,214.877168 274.32,214.87 C282.48,214.59 302.5,212.34 314.81,197.52 C330.53,178.56 317.62,159.6 314.79,154.89 Z" id="Shape" fill="#FAEA4A" fill-rule="nonzero"></path>
                    <path d="M277.15,195.89 C274.33,191.18 255.63,178.94 238.01,197.5 C223.52,212.76 229.49,242.39 232.08,252.44 C232.162604,252.744299 232.276547,253.039211 232.42,253.32 C230.91,253.32 229.51,254.02 230.35,257.2 C230.573598,258.023173 231.375579,258.55068 232.22,258.43 C233.57,258.24 235.39,257.64 235.55,255.75 C235.920207,255.836857 236.299808,255.877168 236.68,255.87 C244.84,255.59 264.86,253.34 277.17,238.52 C292.88,219.56 280,200.6 277.15,195.89 Z" id="Shape" fill="#EA4E93" fill-rule="nonzero"></path>
                    <path d="M249.06,225.78 C246.24,221.07 227.54,208.83 209.92,227.39 C195.43,242.65 201.4,272.28 203.99,282.33 C204.072604,282.634299 204.186547,282.929211 204.33,283.21 C202.82,283.21 201.42,283.91 202.26,287.09 C202.483598,287.913173 203.285579,288.44068 204.13,288.32 C205.48,288.13 207.3,287.53 207.46,285.64 C207.830207,285.726857 208.209808,285.767168 208.59,285.76 C216.75,285.48 236.77,283.23 249.08,268.41 C264.8,249.46 251.88,230.49 249.06,225.78 Z" id="Shape" fill="#6D8CC8" fill-rule="nonzero"></path>
                    <path d="M164.8,117.21 C161.29,112.99 140.96,103.72 126.36,124.74 C114.36,142.02 124.75,170.4 128.83,179.95 C128.957841,180.238875 129.115353,180.513684 129.3,180.77 C127.8,180.97 126.53,181.9 127.84,184.92 C128.184607,185.682274 129.035043,186.077726 129.84,185.85 C131.15,185.46 132.84,184.58 132.72,182.7 C133.100597,182.731027 133.483581,182.714229 133.86,182.65 C141.86,181.14 161.34,175.88 171.25,159.36 C183.95,138.22 168.31,121.44 164.8,117.21 Z" id="Shape" fill="#FAEA4A" fill-rule="nonzero"></path>
                    <path d="M169.72,177.22 C166.9,172.51 148.2,160.27 130.58,178.83 C116.09,194.09 122.06,223.72 124.65,233.77 C124.732604,234.074299 124.846547,234.369211 124.99,234.65 C123.48,234.65 122.08,235.35 122.92,238.53 C123.143598,239.353173 123.945579,239.88068 124.79,239.76 C126.14,239.57 127.96,238.97 128.12,237.08 C128.490207,237.166857 128.869808,237.207168 129.25,237.2 C137.41,236.92 157.43,234.67 169.74,219.85 C185.46,200.9 172.55,181.93 169.72,177.22 Z" id="Shape" fill="#EA4E93" fill-rule="nonzero"></path>
                    <path d="M197.65,164.46 C193.97,160.39 173.26,151.99 159.56,173.6 C148.29,191.37 159.87,219.29 164.34,228.65 C164.478559,228.933236 164.646123,229.201337 164.84,229.45 C163.35,229.72 162.12,230.7 163.55,233.66 C163.926742,234.42499 164.814371,234.789475 165.62,234.51 C166.91,234.07 168.62,233.12 168.37,231.24 C168.749358,231.253728 169.128948,231.220136 169.5,231.14 C177.5,229.29 196.67,223.22 205.87,206.3 C217.66,184.65 201.33,168.53 197.65,164.46 Z" id="Shape" fill="#6D8CC8" fill-rule="nonzero"></path>
                    <path d="M184.48,213 C181.66,208.29 162.96,196.05 145.34,214.61 C130.85,229.87 136.82,259.5 139.41,269.55 C139.492604,269.854299 139.606547,270.149211 139.75,270.43 C138.24,270.43 136.84,271.13 137.68,274.31 C137.903598,275.133173 138.705579,275.66068 139.55,275.54 C140.9,275.35 142.72,274.75 142.88,272.86 C143.246114,272.952768 143.622316,272.999793 144,273 C152.16,272.72 172.18,270.47 184.49,255.65 C200.22,236.72 187.31,217.76 184.48,213 Z" id="Shape" fill="#F59F4F" fill-rule="nonzero"></path>
                    <path d="M214.15,232.89 C211.33,228.18 192.63,215.94 175.01,234.5 C160.52,249.76 166.49,279.39 169.08,289.44 C169.162604,289.744299 169.276547,290.039211 169.42,290.32 C167.91,290.32 166.51,291.02 167.35,294.2 C167.573598,295.023173 168.375579,295.55068 169.22,295.43 C170.57,295.24 172.39,294.64 172.55,292.75 C172.920207,292.836857 173.299808,292.877168 173.68,292.87 C181.84,292.59 201.86,290.34 214.17,275.52 C229.89,256.56 217,237.6 214.15,232.89 Z" id="Shape" fill="#EA4D50" fill-rule="nonzero"></path>
                    <path d="M109.26,147 C104.52,144.23 82.26,142.49 75.72,167.24 C70.36,187.59 89.84,210.69 96.93,218.24 C97.1482583,218.467686 97.38955,218.672114 97.65,218.85 C96.31,219.56 95.44,220.85 97.65,223.25 C98.2415421,223.863853 99.1976602,223.941029 99.88,223.43 C100.97,222.62 102.28,221.21 101.51,219.48 C101.859728,219.373848 102.19546,219.226126 102.51,219.04 C109.51,214.88 126.01,203.27 129.67,184.36 C134.44,160.21 114,149.79 109.26,147 Z" id="Shape" fill="#F59F4F" fill-rule="nonzero"></path>
                    <polyline id="Shape" stroke="#FFFFFF" points="169.41 290.33 127.55 372.93 137.39 311.63"></polyline>
                    <path d="M129.21,201.69 C124.64,198.69 102.5,195.61 94.54,219.94 C88,239.94 106.1,264.14 112.74,272.12 C112.943653,272.35953 113.171531,272.577355 113.42,272.77 C112.04,273.4 111.09,274.65 113.21,277.16 C113.764007,277.804175 114.710142,277.936891 115.42,277.47 C116.56,276.72 117.94,275.39 117.28,273.62 C117.651077,273.538307 118.010517,273.410656 118.35,273.24 C125.6,269.49 142.73,258.87 147.48,240.24 C153.58,216.33 133.78,204.73 129.21,201.69 Z" id="Shape" fill="#6D8CC8" fill-rule="nonzero"></path>
                    <path d="M129.56,239.24 C124.26,237.82 102.31,242.04 102.56,267.64 C102.77,288.64 127.68,305.8 136.56,311.23 C136.831983,311.392865 137.120208,311.526923 137.42,311.63 C136.31,312.63 135.82,314.15 138.63,315.86 C139.364149,316.295793 140.308026,316.115598 140.83,315.44 C141.67,314.37 142.56,312.66 141.36,311.2 C141.684538,311.004463 141.983498,310.769325 142.25,310.5 C147.92,304.62 160.73,289.07 159.25,269.87 C157.33,245.29 134.86,240.66 129.56,239.24 Z" id="Shape" fill="#ACCA3B" fill-rule="nonzero"></path>
                    <path d="M128.55,373.63 C122.22,397.19 130.55,420.51 135.8,427.38 C141.05,434.25 156.55,453.63 151.18,457.82 C145.81,462.01 141.81,457.63 141.81,457.63 C141.81,457.63 147.81,450.63 132.81,426.51 C120.03,405.95 125.52,380.76 127.42,373.76 L128.55,373.63 Z" id="Shape" fill="#FFFFFF" fill-rule="nonzero"></path>
                    <path d="M122.77,306.74 L127.87,370.62" id="Shape" stroke="#FFFFFF"></path>
                    <path d="M107.53,298.99 L127.97,371.64" id="Shape" stroke="#FFFFFF"></path>
                    <path d="M78.33,249.06 C73.07,250.62 56.54,265.66 70.11,287.36 C81.27,305.2 111.44,306.83 121.82,306.84 C122.136301,306.836036 122.45133,306.799171 122.76,306.73 C122.36,308.19 122.76,309.73 126,309.73 C126.852468,309.720265 127.56421,309.077125 127.66,308.23 C127.82,306.88 127.66,304.96 125.9,304.34 C126.07756,304.001467 126.211943,303.641993 126.3,303.27 C128.07,295.27 130.9,275.35 119.62,259.73 C105.19,239.74 83.6,247.5 78.33,249.06 Z" id="Shape" fill="#EA4D50" fill-rule="nonzero"></path>
                </g>
                <g id="Katy" transform="translate(0.000000, 432.000000)">
                    <path d="M82.85,54.15 C82.03,52.74 81.17,51.37 80.33,49.97 C79.84,49.14 79.33,48.3 78.85,47.37 L78.54,46.62 C78.4,46.29 78.27,46.03 78.17,45.77 C77.98,45.28 77.82,44.77 77.6,44.29 C76.8631959,42.6283644 76.2742513,40.9050323 75.84,39.14 C75.3,37.14 74.98,35 74.64,32.91 C74.48,31.98 74.37,31.03 74.17,30.11 C73.86,28.69 73.48,27.28 73.17,25.86 C72.8050566,24.3313196 72.2857225,22.8436787 71.62,21.42 C70.867395,19.8177889 69.9914249,18.2764827 69,16.81 C67.9797262,15.2475859 66.8572787,13.7543299 65.64,12.34 C64.8151509,11.3936264 63.8971967,10.5326256 62.9,9.77 C62.3203722,9.2863144 61.7090044,8.84198702 61.07,8.44 C59.2840312,7.31935908 65.7988281,7.89458984 51.3112793,2.67358398 C50.1806222,2.09118208 48.0919189,1.52490234 46.6191406,1.24353027 C45.0749897,0.623483753 39.1105215,0.957094606 37.0830208,1.44098449 C36.9627104,1.46969816 36.8423488,1.49775244 36.7219238,1.52490234 C35.1398908,1.90364481 29.21,3.49 28.05,3.98 C26.89,4.47 25.48,5.15 24.23,5.81 C23.16,6.37 22.14,7.02 21.1,7.64 C20.46,8.02 19.82,8.4 19.19,8.82 C18.56,9.24 17.83,9.77 17.19,10.26 C16.55,10.75 15.72,11.33 15.01,11.89 C14.64,12.18 14.32,12.52 14.01,12.84 C13.16,13.62 12.28,14.37 11.47,15.19 C10.66,16.01 9.9,16.89 9.11,17.75 C9.03512666,17.8442788 8.96822913,17.9446251 8.91,18.05 C8.09,19.33 7.26,20.61 6.46,21.91 C6.00894961,22.6039107 5.61434816,23.3329202 5.28,24.09 C4.34,26.38 3.46,28.7 2.55,31.01 C2.11699534,32.2278588 1.78258512,33.478553 1.55,34.75 C1.44,35.25 1.41,35.75 1.3,36.27 C1.08777858,37.1641425 0.987012985,38.0811093 1,39 C1,40.17 1.18,41.34 1.21,42.51 C1.24877743,43.3091135 1.40720684,44.0978897 1.68,44.85 C2.15,46.24 2.54,47.67 3.06,49.04 C3.51,50.24 4.06,51.38 4.61,52.54 C5.16,53.7 5.8,55.16 6.41,56.47 C7.09345883,57.9749318 7.6520076,59.533517 8.08,61.13 C8.49,62.58 8.74,64.13 9.08,65.57 C9.61,67.96 9.8,70.41 10.08,72.84 C10.1562803,73.9680664 10.3815709,75.0810694 10.75,76.15 C10.9669143,76.7985924 11.3063986,77.3994794 11.75,77.92 C12.3624554,78.5371064 13.2125095,78.8581569 14.08,78.8 C14.7614409,78.7493097 15.4335794,78.6115213 16.08,78.39 C17.6797519,78.0113321 19.1931646,77.3326717 20.54,76.39 C21.13,75.95 21.65,75.39 22.23,74.95 C23.46,73.95 24.7,72.95 25.93,72.02 C26.5000297,71.5344218 27.1913515,71.2129572 27.93,71.09 C29.3987309,70.9238459 30.8001701,70.3832416 32,69.52 C32,69.52 55.72,63.18 55.85,63.17 L59.39,64.34 C60.13,64.59 60.8,64.85 61.49,65.03 C62.848591,65.3550129 64.25554,65.4262079 65.64,65.24 C66.5488705,65.2164015 67.4435363,65.0088934 68.27,64.63 C69.17,64.1233333 70.0566667,63.59 70.93,63.03 C72.0879184,62.1826193 73.4450905,61.6487064 74.87,61.48 C75.5628365,61.4428815 76.2571635,61.4428815 76.95,61.48 C78.4152998,61.5748286 79.8864151,61.4398639 81.31,61.08 C82.3100155,60.8357764 83.1428978,60.1466216 83.57,59.21 C83.63,59.08 83.71,58.97 83.78,58.84 C84.234449,58.1106908 84.3160773,57.2090688 84,56.41 C83.6590755,55.6358278 83.2751433,54.8813175 82.85,54.15 Z" id="Shape" fill="#5C351B" fill-rule="nonzero"></path>
                    <ellipse id="Oval" fill="#F8ECDB" fill-rule="nonzero" transform="translate(41.982114, 34.201268) rotate(-13.660000) translate(-41.982114, -34.201268) " cx="41.9821141" cy="34.2012676" rx="34.16" ry="23.25"></ellipse>
                    <path d="M51.9,4.53 L44.76,7.95 L17,14.61 L4.68,32.36 L8.76,51.94 L20.67,60.94 C15.5354002,51.7845346 15.5166016,45.9700781 17,35.6269531 C17.0727589,34.9581014 21.03125,23.5126953 25.5351562,20.5976562 C42.4775665,9.63211103 55.12,11.64 69.35,17.06 C69.36,5.61 51.9,4.53 51.9,4.53 Z" id="Shape-Copy" fill="#5C351B" fill-rule="nonzero"></path>
                    <ellipse id="Oval" fill="#5C351B" fill-rule="nonzero" transform="translate(40.214263, 30.769863) rotate(-22.630000) translate(-40.214263, -30.769863) " cx="40.214263" cy="30.769863" rx="2.19" ry="3.37"></ellipse>
                    <ellipse id="Oval" fill="#5C351B" fill-rule="nonzero" transform="translate(62.627070, 24.323566) rotate(-22.630000) translate(-62.627070, -24.323566) " cx="62.6270695" cy="24.3235659" rx="2.19" ry="3.38"></ellipse>
                    <ellipse id="L_Foot" fill="#FFFFFF" fill-rule="nonzero" transform="translate(53.079550, 154.246107) rotate(-16.410000) translate(-53.079550, -154.246107) " cx="53.0795497" cy="154.246107" rx="4.14" ry="7.42"></ellipse>
                    <path d="M73.07,145.82 C75.25,149.29 75.44,153.09 73.5,154.3 C71.56,155.51 68.97,153.09 66.05,150.22 C65.37,149.55 63.9,148.86 63.61,148.02 C62.8793374,145.714354 63.6805701,143.198483 65.61,141.74 C67.56,140.52 70.9,142.35 73.07,145.82 Z" id="R_foot" fill="#FFFFFF" fill-rule="nonzero"></path>
                    <path d="M67.2,80.27 C57.48,72.66 62.76,72.84 64.45,66.86 C65.62,62.73 68.16,57.57 63.72,55.42 C54.49,50.95 38.43,57.42 37.19,65.61 C38.7999029,69.5417182 41.1799151,73.1117364 44.19,76.11 C46.94,78.87 48.63,81.37 40.81,86.44 C32.99,91.51 32.57,116.7 28.81,129.75 C25.05,142.8 23.45,144.6 15,153.66 C6.55,162.72 13.94,161.66 17.32,161.09 C20.7,160.52 74.81,150.4 79.67,131.37 C84.53,112.34 76.92,87.88 67.2,80.27 Z" id="Dress" fill="#FFFFFF" fill-rule="nonzero"></path>
                    <circle id="L_hand" fill="#F8ECDB" fill-rule="nonzero" cx="19.22" cy="98.99" r="3.71"></circle>
                    <circle id="R_HAnd" fill="#F8ECDB" fill-rule="nonzero" cx="96.39" cy="27.69" r="3.71"></circle>
                    <path d="M37.71,58.16 C37.71,58.16 36.71,74.64 19.57,98.98" id="Left_arm" stroke="#F8ECDB" stroke-width="3"></path>
                    <path d="M57.62,53.17 C57.62,53.17 82.35,47.61 96.39,29.23" id="Right_arm" stroke="#F8ECDB" stroke-width="3"></path>
                    <path d="M53.87,60.72 C54.14,61.12 54.21,61.06 54.3,60.6 C54.6495242,58.5350655 55.9231691,56.7429085 57.7583164,55.7337723 C59.5934637,54.7246361 61.7890603,54.6090786 63.72,55.42 C62.04,54 59.23,52.77 54.72,51.82 C40.14,48.74 40.35,54.76 40.35,54.76 C40.35,54.76 36.07,58.15 36.7,63.59 C36.7817242,64.2730565 36.9428118,64.9442549 37.18,65.59 C39.74,61.33 47.62,51.48 53.87,60.72 Z" id="Chest" fill="#F8ECDB" fill-rule="nonzero"></path>
                </g>
                <g id="Chris" transform="translate(76.000000, 357.000000)">
                    <ellipse id="Oval" fill="#5C351B" fill-rule="nonzero" transform="translate(56.613825, 148.564775) rotate(-13.660000) translate(-56.613825, -148.564775) " cx="56.613825" cy="148.564775" rx="6.52" ry="10.75"></ellipse>
                    <ellipse id="Oval" fill="#5C351B" fill-rule="nonzero" transform="translate(75.644488, 143.941334) rotate(-13.660000) translate(-75.644488, -143.941334) " cx="75.6444884" cy="143.941334" rx="6.52" ry="10.75"></ellipse>
                    <path d="M50.43,101.25 C50.43,101.25 55.55,125.88 46.99,141.44 C46.99,141.44 48.8,146.38 60.93,141.44 C60.93,141.44 63.99,123.5 63.93,118.69 C63.87,113.88 65.81,110.44 67.56,110.44 C69.31,110.44 70.62,121 65.62,138.19 C65.62,138.19 69.68,142.13 77.56,135.32 C77.56,135.32 79.94,109.76 78.25,93.7 L50.43,101.25 Z" id="Trousers" fill="#5C351B" fill-rule="nonzero"></path>
                    <path d="M40.4,63.25 C40.4,63.25 47.74,83.88 50.4,101.25 C72.96,100.88 78.21,93.69 78.21,93.69 C78.21,93.69 73.58,67.25 65.65,51.44 C57.72,35.63 40.4,63.25 40.4,63.25 Z" id="shirt" fill="#FFFFFF" fill-rule="nonzero"></path>
                    <path d="M43,61.83 C43,61.83 39.13,74.58 23.48,99.51" id="Left_arm-2" stroke="#FFFFFF" stroke-width="3"></path>
                    <path d="M61.49,53.7 C61.49,53.7 82.22,44.7 96.55,15.92" id="Right_arm-2" stroke="#FFFFFF" stroke-width="3"></path>
                    <circle id="L_hand-2" fill="#F8ECDB" fill-rule="nonzero" cx="23.09" cy="99.52" r="3.71"></circle>
                    <circle id="R_HAnd-2" fill="#F8ECDB" fill-rule="nonzero" cx="96.55" cy="15.93" r="3.71"></circle>
                    <path d="M4.1,47.31 C10.04,62.63 31.1,68.76 51.1,60.99 C71.1,53.22 82.58,34.51 76.64,19.19 C70.7,3.87 50,-0.76 29.93,7 C9.86,14.76 -1.84,32 4.1,47.31 Z" id="Shape" fill="#F8ECDB" fill-rule="nonzero"></path>
                    <path d="M77.81,23.12 C77.81,23.12 75.39,19 69.22,19.92 C63.05,20.84 56.3,14.67 54.05,11.84 C51.8,9.01 31,24.67 25.8,27.75 C20.6,30.83 6.14,34 6.14,34 C6.14,34 3.95,45.14 4.63,48.55 C4.63,48.55 -6.27,24.91 6.89,6.91 C6.89,6.91 21.29,6.65 41.72,1.41 C62.15,-3.83 77.72,14.12 77.81,23.11" id="Shape" fill="#5C351B" fill-rule="nonzero"></path>
                    <ellipse id="Oval" fill="#5C351B" fill-rule="nonzero" transform="translate(22.255473, 52.573237) rotate(-22.630000) translate(-22.255473, -52.573237) " cx="22.2554733" cy="52.5732374" rx="2.19" ry="3.37"></ellipse>
                    <ellipse id="Oval" fill="#5C351B" fill-rule="nonzero" transform="translate(43.669561, 44.134931) rotate(-22.630000) translate(-43.669561, -44.134931) " cx="43.6695614" cy="44.1349313" rx="2.19" ry="3.37"></ellipse>
                    <polygon id="Belt" stroke="#FFFFFF" points="69.68 97.38 69.68 102.31 63.93 103.88 62.99 99"></polygon>
                    <path d="M56.62,58.81 C56.62,58.81 56.25,63.25 55.18,64.94 L60.43,66.82 L61.65,66.41 C61.7870754,65.2277415 62.2280648,64.1011513 62.93,63.14 C60.7375561,61.8310264 58.6300229,60.3848111 56.62,58.81 Z" id="Shape" fill="#5C351B" fill-rule="nonzero"></path>
                    <path d="M41.93,94 L42.26,93.88 C42.4,93.83 56.56,88.64 60.18,67.88 L60.18,67.6 L62.32,66.79 L62.43,67.38 C62.43,67.61 66.54,90.71 42.58,101.24 L41.88,101.55 L41.93,94 Z" id="Shape" fill="#5C351B" fill-rule="nonzero"></path>
                    <path d="M62,67.5 C62,67.5 66.31,90.31 42.44,100.81 L42.44,94.37 C42.44,94.37 57,89.31 60.68,68 L61.99,67.5 L62,67.5 Z M62.75,66.14 L61.63,66.57 L60.32,67.07 L59.79,67.27 L59.69,67.83 C56.13,88.26 42.23,93.38 42.09,93.43 L41.42,93.67 L41.42,102.35 L42.82,101.73 C55.51,96.15 60.32,87.09 62.12,80.48 C63.3153484,76.1967483 63.6048373,71.711373 62.97,67.31 L62.75,66.14 Z" id="Shape" fill="#FFFFFF" fill-rule="nonzero"></path>
                </g>
            </g>
        </g>
    </g>
</svg>