<?xml version="1.0" encoding="UTF-8"?>
<svg width="91px" height="163px" viewBox="0 0 91 163" version="1.1" xmlns="http://www.w3.org/2000/svg" xmlns:xlink="http://www.w3.org/1999/xlink">
    <!-- Generator: Sketch 48.1 (47250) - http://www.bohemiancoding.com/sketch -->
    <title>Group</title>
    <desc>Created with Sketch.</desc>
    <defs></defs>
    <g id="Page-1" stroke="none" stroke-width="1" fill="none" fill-rule="evenodd">
        <g id="Group" transform="translate(-13.000000, -12.000000)">
            <g id="Path">
                <g>
                    <path d="M96.7504774,22.3171159 C91.8210867,18.5152109 75.2304774,5.36711591 57.6104774,23.9271159 C43.1204774,39.1871159 49.0904774,68.8171159 51.6804774,78.8671159 C51.7630811,79.1714154 51.8770241,79.4663265 52.0204774,79.7471159 C50.5104774,79.7471159 49.1104774,80.4471159 49.9504774,83.6271159 C50.1740753,84.4502891 50.9760566,84.9777955 51.8204774,84.8571159 C53.1704774,84.6671159 54.9904774,84.0671159 55.1504774,82.1771159 C55.5206847,82.2639726 55.9002852,82.3042841 56.2804774,82.2971159 C64.4404774,82.0171159 84.4604774,79.7671159 96.7704774,64.9471159 C112.490477,45.9971159 101.679868,26.1190209 96.7504774,22.3171159 Z" fill="#F59F4F" transform="translate(76.610085, 49.559517) rotate(-15.000000) translate(-76.610085, -49.559517) "></path>
                    <path d="M63.5220634,18.8124467 C59.723062,15.8443415 42.9150093,1.83089855 25.2950093,20.3908985 C10.8050093,35.6508985 16.7750093,65.2808985 19.3650093,75.3308985 C19.447613,75.635198 19.5615559,75.9301092 19.7050093,76.2108985 C18.1950093,76.2108985 16.7950093,76.9108985 17.6350093,80.0908985 C17.8586072,80.9140717 18.6605885,81.4415781 19.5050093,81.3208985 C20.8550093,81.1308985 22.6750093,80.5308985 22.8350093,78.6408985 C23.2052166,78.7277552 23.5848171,78.7680668 23.9650093,78.7608985 C32.1250093,78.4808985 49.0402009,73.2928525 62.6024658,60.3291104 C83.3383367,40.508344 67.3210648,21.7805519 63.5220634,18.8124467 Z" fill="#FAEA4A" transform="translate(44.466351, 46.143707) rotate(-38.000000) translate(-44.466351, -46.143707) "></path>
                    <path d="M61.9400638,89 C55.6100638,112.56 63.9400638,135.88 69.1900638,142.75 C74.4400638,149.62 80.9182129,170.281494 79.440918,173.133301 C77.963623,175.985107 74.0395508,173.874023 74.0395508,173.133301 C74.0395508,172.392578 81.2000638,166 66.2000638,141.88 C53.4200638,121.32 58.3709961,96 60.2709961,89 L61.9400638,89 Z" fill="#FFFFFF"></path>
                    <path d="M52.8291206,86.8094679 C46.4991206,110.369468 55.6132918,137.525797 60.8632918,144.395797 C66.1132918,151.265797 74.4766949,171.348678 72.9993999,174.200485 C71.522105,177.052291 66.8732918,174.645797 66.8732918,174.645797 C66.8732918,174.645797 72.8732918,167.645797 57.8732918,143.525797 C45.0932918,122.965797 49.5208931,93.5864266 51.4208931,86.5864266 L52.8291206,86.8094679 Z" fill="#FFFFFF" transform="translate(61.143349, 131.090554) rotate(-9.000000) translate(-61.143349, -131.090554) "></path>
                </g>
            </g>
        </g>
    </g>
</svg>