<?xml version="1.0" encoding="UTF-8"?>
<svg width="23px" height="20px" viewBox="0 0 23 20" version="1.1" xmlns="http://www.w3.org/2000/svg" xmlns:xlink="http://www.w3.org/1999/xlink">
    <!-- Generator: Sketch 51.1 (57501) - http://www.bohemiancoding.com/sketch -->
    <title>Group 20</title>
    <desc>Created with Sketch.</desc>
    <defs>
        <polygon id="path-1" points="0.0414 0.989275132 17.705 0.989275132 17.705 2.24742971 0.0414 2.24742971"></polygon>
        <polygon id="path-3" points="0 0.644779711 18.5699 0.644779711 18.5699 1.97295444 0 1.97295444"></polygon>
    </defs>
    <g id="Page-1" stroke="none" stroke-width="1" fill="none" fill-rule="evenodd">
        <g id="Group-21" transform="translate(0.000000, -2.000000)">
            <g id="Group-20" transform="translate(0.000000, 0.571700)">
                <path d="M3.3729,1.4559 C3.5129,4.7389 3.3519,7.9989 3.1169,11.2529 C2.8509,14.5039 2.5099,17.7499 1.8639,20.9729 C1.7209,17.6889 1.8829,14.4299 2.1199,11.1759 C2.3879,7.9249 2.7289,4.6789 3.3729,1.4559" id="Fill-2" fill="#1D1D1B"></path>
                <path d="M17.2509,1.4285 C17.5909,4.6975 17.6289,7.9595 17.5929,11.2225 C17.5269,14.4845 17.3839,17.7435 16.9369,20.9995 C16.5929,17.7315 16.5559,14.4685 16.5939,11.2055 C16.6629,7.9445 16.8049,4.6845 17.2509,1.4285" id="Fill-6" fill="#1D1D1B"></path>
                <g id="Group-13" transform="translate(2.000000, 3.000000)">
                    <mask id="mask-2" fill="white">
                        <use xlink:href="#path-1"></use>
                    </mask>
                    <g id="Clip-12"></g>
                    <path d="M0.0414,2.0936 C2.9644,1.5426 5.9034,1.2946 8.8464,1.1196 C11.7914,0.9766 14.7404,0.9076 17.7054,1.1456 C14.7824,1.6976 11.8434,1.9466 8.9004,2.1176 C5.9554,2.2606 3.0064,2.3276 0.0414,2.0936" id="Fill-11" fill="#1D1D1B" mask="url(#mask-2)"></path>
                </g>
                <g id="Group-19" transform="translate(0.000000, 18.000000)">
                    <mask id="mask-4" fill="white">
                        <use xlink:href="#path-3"></use>
                    </mask>
                    <g id="Clip-18"></g>
                    <path d="M-0.0001,1.8475 C3.0719,1.2755 6.1619,1.0055 9.2559,0.8105 C12.3519,0.6455 15.4519,0.5565 18.5699,0.7725 C15.4979,1.3465 12.4079,1.6155 9.3139,1.8085 C6.2179,1.9715 3.1179,2.0605 -0.0001,1.8475" id="Fill-17" fill="#1D1D1B" mask="url(#mask-4)"></path>
                </g>
                <g id="Group" transform="translate(5.000000, 0.428300)" fill="#48BE65">
                    <path d="M3.49737848,11.6055425 C2.49323383,12.2124199 1.04110161,14.198601 -0.19780593,14.4383202 C0.900422151,13.9843592 2.60127429,13.4847668 3.58975004,12.8530333 C4.49788603,12.0951 6.97937445,11.4940706 7.20561836,9.26968783 C6.00079063,10.0733757 4.40957346,10.8533472 3.49737848,11.6055425 Z" id="Fill-6" transform="translate(3.503906, 11.854004) rotate(76.000000) translate(-3.503906, -11.854004) "></path>
                    <path d="M12.0515913,8.66864763 C12.304605,10.7381298 11.8957135,13.1817758 11.5815586,15.0014318 C11.423126,15.9191098 11.4219615,16.0745802 11.272107,17.1661385 C11.9801619,17.1786572 10.4439641,17.573897 10.3192766,16.783223 C9.99505517,14.7272546 10.2597304,10.7730587 10.2871757,8.41637884 C10.3561757,5.15537884 11.2635913,2.13064763 11.7095913,-1.12535237 C12.0495913,2.14364763 12.0875913,5.40564763 12.0515913,8.66864763 Z" id="Fill-6" transform="translate(11.144965, 8.075272) rotate(39.000000) translate(-11.144965, -8.075272) "></path>
                </g>
            </g>
        </g>
    </g>
</svg>