<?xml version="1.0" encoding="UTF-8"?>
<svg width="2399px" height="403px" viewBox="0 0 2399 403" version="1.1" xmlns="http://www.w3.org/2000/svg" xmlns:xlink="http://www.w3.org/1999/xlink">
    <!-- Generator: Sketch 50 (54983) - http://www.bohemiancoding.com/sketch -->
    <title>plane</title>
    <desc>Created with Sketch.</desc>
    <defs></defs>
    <g id="Page-1" stroke="none" stroke-width="1" fill="none" fill-rule="evenodd">
        <g id="plane">
            <g id="Banner" transform="translate(0.000000, 30.000000)">
                <rect id="Rectangle-path" fill="#5C351B" fill-rule="nonzero" transform="translate(1454.525000, 44.535000) rotate(90.000000) translate(-1454.525000, -44.535000) " x="1450.69" y="12.62" width="7.67" height="63.83"></rect>
                <path d="M1427.25,40.69 L1431.81,48.25" id="Shape" stroke="#F8ECDB" stroke-linecap="round"></path>
                <path d="M1437.25,40.69 L1441.81,48.25" id="Shape" stroke="#F8ECDB" stroke-linecap="round"></path>
                <path d="M1447.25,40.69 L1451.81,48.25" id="Shape" stroke="#F8ECDB" stroke-linecap="round"></path>
                <path d="M1457.25,40.69 L1461.81,48.25" id="Shape" stroke="#F8ECDB" stroke-linecap="round"></path>
                <path d="M1467.25,40.69 L1471.81,48.25" id="Shape" stroke="#F8ECDB" stroke-linecap="round"></path>
                <path d="M1477.25,40.69 L1481.81,48.25" id="Shape" stroke="#F8ECDB" stroke-linecap="round"></path>
                <rect id="Rectangle-path" fill="#5C351B" fill-rule="nonzero" transform="translate(1454.525000, 113.015000) rotate(90.000000) translate(-1454.525000, -113.015000) " x="1450.69" y="81.1" width="7.67" height="63.83"></rect>
                <path d="M1427.25,109.18 L1431.81,116.74" id="Shape" stroke="#F8ECDB" stroke-linecap="round"></path>
                <path d="M1437.25,109.18 L1441.81,116.74" id="Shape" stroke="#F8ECDB" stroke-linecap="round"></path>
                <path d="M1447.25,109.18 L1451.81,116.74" id="Shape" stroke="#F8ECDB" stroke-linecap="round"></path>
                <path d="M1457.25,109.18 L1461.81,116.74" id="Shape" stroke="#F8ECDB" stroke-linecap="round"></path>
                <path d="M1467.25,109.18 L1471.81,116.74" id="Shape" stroke="#F8ECDB" stroke-linecap="round"></path>
                <path d="M1477.25,109.18 L1481.81,116.74" id="Shape" stroke="#F8ECDB" stroke-linecap="round"></path>
                <polygon id="Shape" fill="#C6C6C6" fill-rule="nonzero" points="1317.93 0.7 1268.04 0.7 1264.2 4.2 1264.2 54.42 1317.93 54.42"></polygon>
                <polygon id="Shape" fill="#C6C6C6" fill-rule="nonzero" points="166.51 0.7 101.69 0.7 101.69 54.42 170.04 54.42 170.04 4.04"></polygon>
                <path d="M1266.59,7.42 L1315.86,29.76 C1317.13098,30.3344993 1317.94286,31.6052688 1317.93,33 L1317.93,156.85 L1422.62,156.85 L1422.62,0.69 L1268,0.69 C1266.34699,0.70598477 1264.92782,1.87007608 1264.58884,3.48803282 C1264.24986,5.10598956 1265.08242,6.74184201 1266.59,7.42 Z" id="Shape" fill="#E6E6E6" fill-rule="nonzero"></path>
                <path d="M106.76,29.76 C105.48902,30.3344993 104.677139,31.6052688 104.69,33 L104.69,156.85 L0,156.85 L62.17,78.77 L0,0.699692169 L169.51,0.7 C171.178066,0.678070073 172.632447,1.83003522 172.993051,3.45880439 C173.353656,5.08757355 172.521438,6.74578425 171,7.43 L106.76,29.76 Z" id="Shape" fill="#E6E6E6" fill-rule="nonzero"></path>
            </g>
            <g id="Layer_11" transform="translate(102.000000, 0.000000)" fill-rule="nonzero">
                <path d="M1770.36,102.34 C1770.36,102.34 1777.42,118.43 1764.93,122.71 C1764.93,122.71 1776.33,137.12 1777.59,155.21 L1683.7,154.1 L1681.77,146.41 L1712.83,116.67 L1722.6,105.39 L1770.36,102.34 Z" id="Shape" fill="#AD7C46"></path>
                <path d="M1710.84,121.92 C1710.84,121.92 1742.5,141.1 1764.93,124.45 C1764.93,124.45 1770.36,126.08 1769.45,129.52 C1768.54,132.96 1769.09,133.14 1764.57,132.78 C1764.57,132.78 1757.15,142.01 1739.06,140.2 C1720.97,138.39 1710.84,132.06 1710.84,132.06 L1705.59,133.87 L1699.08,128.99 L1699.08,111.79 C1699.08,111.79 1700.35,108.35 1702.34,109.79 C1704.33,111.23 1711.02,117.39 1711.02,117.39 L1710.84,121.92 Z" id="Shape" fill="#2C1B11"></path>
                <path d="M1770.36,102.34 C1770.36,102.34 1777.42,118.43 1764.93,122.71 C1764.93,122.71 1776.33,137.12 1777.59,155.21 C1777.59,155.21 1703.65,165.46 1683.7,154.1 L1681.77,146.41 L1712.83,116.67 L1722.6,105.39 L1770.36,102.34 Z" id="Shape" fill="#D4AA4B"></path>
                <path d="M1710.84,121.92 C1710.84,121.92 1742.5,141.1 1764.93,124.45 C1764.93,124.45 1770.36,126.08 1769.45,129.52 C1768.54,132.96 1769.09,133.14 1764.57,132.78 C1764.57,132.78 1757.15,142.01 1739.06,140.2 C1720.97,138.39 1710.84,132.06 1710.84,132.06 L1705.59,133.87 L1699.08,128.99 L1699.08,111.79 C1699.08,111.79 1700.35,108.35 1702.34,109.79 C1704.33,111.23 1711.02,117.39 1711.02,117.39 L1710.84,121.92 Z" id="Shape" fill="#2C1B11"></path>
                <path d="M1723.63,108.29 C1723.63,108.29 1732.37,128.29 1756.63,121.19 C1773.36,116.32 1762.06,98.4 1762.06,98.4 L1723.63,108.29 Z" id="Shape" fill="#2C1B11"></path>
                <path d="M1754.08,106.72 C1754.08,106.72 1772.28,111.72 1764.25,128.79 C1760.42,135.42 1752.67,133.64 1751.37,130.96 C1750.07,128.28 1747.03,121.19 1743.23,118.84 C1739.43,116.49 1733.23,111.6 1733.9,107.44 C1734.57,103.28 1754.08,106.72 1754.08,106.72 Z" id="Shape" fill="#E8A3AB"></path>
                <path d="M1759,134.87 C1758.48562,134.871162 1758.00653,134.608678 1757.73063,134.174551 C1757.45474,133.740424 1757.42053,133.195206 1757.64,132.73 C1759.81,128.15 1760.12,124.11 1758.59,120.73 C1756.06,115.18 1749.21,112.97 1748.49,112.73 C1739.64,111.18 1731.06,110.98 1730.1,112.29 C1730.04134,112.679667 1729.82766,113.029076 1729.50751,113.258829 C1729.18736,113.488582 1728.78794,113.579167 1728.4,113.51 C1727.57855,113.362499 1727.02686,112.583898 1727.16,111.76 C1727.29344,110.945664 1727.75643,110.222252 1728.44,109.76 C1732.3,107 1746.31,109.29 1749.08,109.76 L1749.22,109.76 C1749.58,109.86 1758.04,112.28 1761.3,119.38 C1763.23,123.59 1762.91,128.48 1760.3,133.91 C1760.09082,134.456029 1759.58341,134.830734 1759,134.87 Z" id="Shape" fill="#CC929A"></path>
                <path d="M1681.78,146.4 C1686.7058,139.525471 1692.55013,133.358137 1699.15,128.07 L1704.34,113.6 C1704.34,113.6 1702.53,111.67 1702.53,109.74 C1702.53,107.81 1700.48,117.46 1698.07,116.61 C1695.66,115.76 1688.22,84.87 1703.38,67.52 C1707.32,63.01 1715.8,70.26 1715.8,70.26 C1715.8,70.26 1721.8,60.64 1730.87,61.12 C1734.00469,59.6117749 1737.65531,59.6117749 1740.79,61.12 C1740.79,61.12 1746.57,51.85 1758.49,66.81 C1765.6,75.73 1764.13,76.7 1764.13,76.7 C1764.13,76.7 1778.63,75.03 1779.48,91.06 C1780.33,107.09 1736.73,119.99 1723.64,108.3 L1681.78,146.4 Z" id="Shape" fill="#D4AA4B"></path>
                <path d="M1702.52,109.74 C1702.52,107.81 1700.47,117.46 1698.06,116.61 C1695.65,115.76 1688.21,84.87 1703.37,67.52 C1707.31,63.01 1715.79,70.26 1715.79,70.26 C1715.79,70.26 1702.52,111.67 1702.52,109.74 Z" id="Shape" fill="#BC9035"></path>
                <path d="M1710.84,121.92 L1710.84,132 L1705.59,133.81 L1699.08,128.93 L1699.08,111.79 C1699.08,111.79 1700.35,108.35 1702.34,109.79 C1704.33,111.23 1711.02,117.39 1711.02,117.39 L1710.84,121.92 Z" id="Shape" fill="#5C351B"></path>
                <path d="M1733.89,73.53 C1733.89,74.71 1731.73,76.7 1729.06,76.7 C1727.37233,76.6199894 1725.79661,75.8321295 1724.72,74.53 C1724.72,72.38 1726.72,69.29 1729.42,69.29 C1731.82446,69.2284277 1733.82459,71.1256461 1733.89,73.53 Z" id="Shape" fill="#FFFFFF"></path>
                <g id="Group" transform="translate(1727.000000, 71.000000)">
                    <circle id="Oval" fill="#99682D" cx="2.84" cy="3.16" r="1.53"></circle>
                    <path d="M2.84,2.63 C3.13271092,2.63 3.37,2.86728908 3.37,3.16 C3.37,3.45271092 3.13271092,3.69 2.84,3.69 C2.54728908,3.69 2.31,3.45271092 2.31,3.16 C2.31,2.86728908 2.54728908,2.63 2.84,2.63 Z M2.84,0.63 C1.44271958,0.63 0.31,1.76271958 0.31,3.16 C0.31,4.55728042 1.44271958,5.69 2.84,5.69 C4.23728042,5.69 5.37,4.55728042 5.37,3.16 C5.37,1.76271958 4.23728042,0.63 2.84,0.63 Z" id="Shape" fill="#2C1B12"></path>
                </g>
                <path d="M1744.85,70.09 C1744.85,72.34 1743.03,73.44 1740.78,73.44 C1740.78,73.44 1737.03,73.19 1737.03,70.95 C1737.03,68.71 1738.9,66.39 1741.14,66.39 C1743.14236,66.4897883 1744.74481,68.0879118 1744.85,70.09 Z" id="Shape" fill="#FFFFFF"></path>
                <g id="Group" transform="translate(1738.000000, 68.000000)">
                    <circle id="Oval" fill="#99682D" cx="3.14" cy="2.99" r="1.62"></circle>
                    <path d="M3.14,2.37 C3.48241654,2.37 3.76,2.64758346 3.76,2.99 C3.76,3.33241654 3.48241654,3.61 3.14,3.61 C2.79758346,3.61 2.52,3.33241654 2.52,2.99 C2.52,2.64758346 2.79758346,2.37 3.14,2.37 Z M3.14,0.37 C1.69301396,0.37 0.52,1.54301396 0.52,2.99 C0.52,4.43698604 1.69301396,5.61 3.14,5.61 C4.58698604,5.61 5.76,4.43698604 5.76,2.99 C5.76,1.54301396 4.58698604,0.37 3.14,0.37 Z" id="Shape" fill="#2C1B12"></path>
                </g>
                <circle id="Oval" fill="#2C1B12" cx="1729.84" cy="74.16" r="1.38"></circle>
                <circle id="Oval" fill="#2C1B12" cx="1741.14" cy="70.99" r="1.36"></circle>
                <ellipse id="Oval" fill="#2C1B11" transform="translate(1755.120130, 91.003443) rotate(-17.960000) translate(-1755.120130, -91.003443) " cx="1755.12013" cy="91.0034427" rx="21.04" ry="13.84"></ellipse>
                <path d="M1740.78,61.12 C1740.78,61.12 1746.56,51.85 1758.48,66.81 C1765.59,75.73 1764.12,76.7 1764.12,76.7 C1764.12,76.7 1751.73,66 1740.78,61.12 Z" id="Shape" fill="#BC9035"></path>
                <path d="M1735.56,113.74 C1731.11,113.37 1718.8,109.91 1715.35,98.55 C1715.2982,98.3713672 1715.34563,98.1786667 1715.47443,98.0444871 C1715.60323,97.9103075 1715.79382,97.8550338 1715.97443,97.8994871 C1716.15503,97.9439404 1716.2982,98.0813671 1716.35,98.26 C1719.63,109.08 1731.42,112.38 1735.68,112.74 C1735.95614,112.74 1736.18,112.963858 1736.18,113.24 C1736.18,113.516142 1735.95614,113.74 1735.68,113.74 L1735.56,113.74 Z" id="Shape" fill="#2C1B11"></path>
                <polygon id="Shape" fill="#2C1B11" points="1971.78 344.87 1876.44 284.2 2021.11 284.2"></polygon>
                <path d="M1799.44,23.59 L2036.6,0.17 C2061.35,-2.27 2077.14,22.35 2061.6,39.17 L2040.12,62.41 C2040.12,62.41 2020.07,82.27 2005,84.66 L1944.61,94.27 C1910.07,99.77 1874.43,92.84 1845.95,75.11 L1793.74,42.6 C1784.79,37 1788.42,24.76 1799.44,23.59 Z" id="Shape" fill="#F8ECDB"></path>
                <path d="M2037.34,7.45 L1805.43,29.78 C1796.88,30.4 1787.18,31.92 1793.15,42.17 C1784.97,36.4 1788.69,24.73 1799.44,23.59 L2036.6,0.17 C2053.21,-1.47 2065.79,9.09 2067.6,21.29 C2067.56,21.29 2058.65,6 2037.34,7.45 Z" id="Shape" fill="#5C351B"></path>
                <rect id="Rectangle-path" fill="#2C1B11" x="1991.11" y="66.63" width="15.33" height="196.47" rx="5.54"></rect>
                <rect id="Rectangle-path" fill="#2C1B11" x="1894.78" y="66.63" width="15.33" height="196.47" rx="5.54"></rect>
                <path d="M2195.91,163.78 C2188.49958,143.987246 2169.58451,130.871045 2148.45,130.87 L1775.45,130.87 L1773.01,130.87 C1764.6479,146.269101 1748.53304,155.861277 1731.01,155.87 C1716.01,155.87 1693.01,150.15 1684.24,139.37 L1557.24,154.74 C1521.57,134.66 1492,80.55 1492,80.55 C1475.32992,51.8577209 1444.65341,34.2014922 1411.47,34.2 C1396.52517,34.2 1384.41,46.3151747 1384.41,61.26 L1384.41,162.14 C1384.40459,166.735061 1385.57504,171.255081 1387.81,175.27 C1375.28,177.53 1374.92,195.85 1387.81,198.27 L1772.9,271.64 C1804.94979,277.746633 1837.50363,280.820213 1870.13,280.82 L1920.41,280.82 C1972.55839,280.82114 2024.40968,272.969787 2074.22,257.53 L2163.42,229.88 C2184.62381,223.303613 2199.07748,203.690237 2199.08,181.49 C2199.09104,175.444586 2198.01737,169.446229 2195.91,163.78 Z" id="Shape" fill="#FFFFFF"></path>
                <g id="Group" transform="translate(1250.000000, 124.000000)">
                    <rect id="Rectangle-path" fill="#2C1B11" x="855.78" y="51.7" width="15.25" height="15.25" rx="3.32"></rect>
                    <rect id="Rectangle-path" fill="#2C1B11" x="873.65" y="51.7" width="15.25" height="15.25" rx="3.32"></rect>
                    <rect id="Rectangle-path" fill="#2C1B11" x="891.53" y="51.7" width="15.25" height="15.25" rx="3.32"></rect>
                    <rect id="Rectangle-path" fill="#EA4D50" x="0.79" y="45.61" width="1045.98" height="12.12"></rect>
                    <rect id="Rectangle-path" fill="#5C351B" x="913.17" y="9.05" width="56.61" height="130.05"></rect>
                    <path d="M804.65,23.33 C802.248994,23.3286055 800.24743,21.4920296 800.04,19.1 L798.84,5.1 C798.736802,3.81277541 799.175878,2.54094134 800.051226,1.59154005 C800.926574,0.642138759 802.158646,0.101448122 803.45,0.1 L805.86,0.1 C807.151354,0.101448122 808.383426,0.642138759 809.258774,1.59154005 C810.134122,2.54094134 810.573198,3.81277541 810.47,5.1 L809.27,19.1 C809.062241,21.4958556 807.054844,23.3337971 804.65,23.33 Z" id="Shape" fill="#2C1B11"></path>
                    <path d="M817.65,23.33 C815.248994,23.3286055 813.24743,21.4920296 813.04,19.1 L811.84,5.1 C811.736802,3.81277541 812.175878,2.54094134 813.051226,1.59154005 C813.926574,0.642138759 815.158646,0.101448122 816.45,0.1 L818.86,0.1 C820.151354,0.101448122 821.383426,0.642138759 822.258774,1.59154005 C823.134122,2.54094134 823.573198,3.81277541 823.47,5.1 L822.27,19.1 C822.062241,21.4958556 820.054844,23.3337971 817.65,23.33 Z" id="Shape" fill="#2C1B11"></path>
                    <path d="M830.65,23.33 C828.248994,23.3286055 826.24743,21.4920296 826.04,19.1 L824.84,5.1 C824.736802,3.81277541 825.175878,2.54094134 826.051226,1.59154005 C826.926574,0.642138759 828.158646,0.101448122 829.45,0.1 L831.86,0.1 C833.151354,0.101448122 834.383426,0.642138759 835.258774,1.59154005 C836.134122,2.54094134 836.573198,3.81277541 836.47,5.1 L835.27,19.1 C835.062241,21.4958556 833.054844,23.3337971 830.65,23.33 Z" id="Shape" fill="#2C1B11"></path>
                    <path d="M843.65,23.33 C841.248994,23.3286055 839.24743,21.4920296 839.04,19.1 L837.84,5.1 C837.736802,3.81277541 838.175878,2.54094134 839.051226,1.59154005 C839.926574,0.642138759 841.158646,0.101448122 842.45,0.1 L844.86,0.1 C846.151354,0.101448122 847.383426,0.642138759 848.258774,1.59154005 C849.134122,2.54094134 849.573198,3.81277541 849.47,5.1 L848.27,19.1 C848.062241,21.4958556 846.054844,23.3337971 843.65,23.33 Z" id="Shape" fill="#2C1B11"></path>
                    <path d="M856.65,23.33 C854.248994,23.3286055 852.24743,21.4920296 852.04,19.1 L850.84,5.1 C850.736802,3.81277541 851.175878,2.54094134 852.051226,1.59154005 C852.926574,0.642138759 854.158646,0.101448122 855.45,0.1 L857.86,0.1 C859.151354,0.101448122 860.383426,0.642138759 861.258774,1.59154005 C862.134122,2.54094134 862.573198,3.81277541 862.47,5.1 L861.27,19.1 C861.062241,21.4958556 859.054844,23.3337971 856.65,23.33 Z" id="Shape" fill="#2C1B11"></path>
                    <path d="M869.65,23.33 C867.248994,23.3286055 865.24743,21.4920296 865.04,19.1 L863.84,5.1 C863.736802,3.81277541 864.175878,2.54094134 865.051226,1.59154005 C865.926574,0.642138759 867.158646,0.101448122 868.45,0.1 L870.86,0.1 C872.151354,0.101448122 873.383426,0.642138759 874.258774,1.59154005 C875.134122,2.54094134 875.573198,3.81277541 875.47,5.1 L874.27,19.1 C874.062241,21.4958556 872.054844,23.3337971 869.65,23.33 Z" id="Shape" fill="#2C1B11"></path>
                    <path d="M882.65,23.33 C880.248994,23.3286055 878.24743,21.4920296 878.04,19.1 L876.84,5.1 C876.736802,3.81277541 877.175878,2.54094134 878.051226,1.59154005 C878.926574,0.642138759 880.158646,0.101448122 881.45,0.1 L883.86,0.1 C885.151354,0.101448122 886.383426,0.642138759 887.258774,1.59154005 C888.134122,2.54094134 888.573198,3.81277541 888.47,5.1 L887.27,19.1 C887.062241,21.4958556 885.054844,23.3337971 882.65,23.33 Z" id="Shape" fill="#2C1B11"></path>
                    <path d="M895.65,23.33 C893.248994,23.3286055 891.24743,21.4920296 891.04,19.1 L889.84,5.1 C889.736802,3.81277541 890.175878,2.54094134 891.051226,1.59154005 C891.926574,0.642138759 893.158646,0.101448122 894.45,0.1 L896.86,0.1 C898.151354,0.101448122 899.383426,0.642138759 900.258774,1.59154005 C901.134122,2.54094134 901.573198,3.81277541 901.47,5.1 L900.27,19.1 C900.062241,21.4958556 898.054844,23.3337971 895.65,23.33 Z" id="Shape" fill="#2C1B11"></path>
                </g>
                <path d="M2206,170.67 C2205.34931,170.673021 2204.70014,170.733253 2204.06,170.85 C2205.34654,174.291349 2206.00367,177.93603 2206,181.61 C2206.01315,185.368255 2205.33522,189.096903 2204,192.61 C2208.14184,193.407376 2212.37689,191.781769 2214.92144,188.417855 C2217.46599,185.05394 2217.8778,180.536341 2215.98343,176.767786 C2214.08907,172.999231 2210.21775,170.634665 2206,170.67 Z" id="Shape" fill="#EA4D50"></path>
                <circle id="Oval" fill="#F8ECDB" cx="2007.44" cy="353.2" r="49.67"></circle>
                <circle id="Oval" fill="#5C351B" cx="2007.44" cy="353.2" r="31.09"></circle>
                <path d="M2042.48,278 C2038.53,273.18 2007.48,248.85 1934.9,248.85 C1862.32,248.85 1840.73,265.54 1806.21,295.39 C1801.11,299.8 1804.6,307.52 1811.7,307.52 L1989.25,307.52 C2008.62226,307.585305 2027.69896,302.770561 2044.72,293.52 C2051.75,289.63 2046.43,282.85 2042.48,278 Z" id="Shape" fill="#F8ECDB"></path>
                <path d="M1811.7,307.54 L1989.25,307.54 C2008.62226,307.605305 2027.69896,302.790561 2044.72,293.54 C2044.72,293.54 1828.88,285.37 1811.7,307.54 Z" id="Shape" fill="#5C351B"></path>
                <rect id="Rectangle-path" fill="#5C351B" x="2001.44" y="51.54" width="15.33" height="226.67" rx="5.54"></rect>
                <rect id="Rectangle-path" fill="#5C351B" x="1887.11" y="51.54" width="15.33" height="226.67" rx="5.54"></rect>
                <path d="M2199.11,181.74 C2196.52,181.74 2194.36,176.02 2194.11,168.53 L2190.64,61.23 C2190.48,56.34 2191.18,51.54 2192.5,48.48 C2196.13,40.06 2202.07,40.06 2205.7,48.48 C2207.02,51.55 2207.7,56.34 2207.56,61.23 L2204.09,168.53 C2203.86,176 2201.7,181.74 2199.11,181.74 Z" id="Shape" fill="#2C1B11"></path>
                <path d="M2199.11,181.74 C2201.7,181.74 2203.86,187.46 2204.11,194.95 L2207.58,302.25 C2207.74,307.14 2207.04,311.94 2205.72,315 C2202.09,323.42 2196.15,323.42 2192.52,315 C2191.2,311.93 2190.52,307.14 2190.66,302.25 L2194.13,194.95 C2194.36,187.46 2196.52,181.74 2199.11,181.74 Z" id="Shape" fill="#2C1B11"></path>
                <rect id="Rectangle-path" fill="#2C1B11" transform="translate(2199.095000, 181.745000) rotate(-180.000000) translate(-2199.095000, -181.745000) " x="2190.62" y="163.96" width="16.95" height="35.57" rx="8.47"></rect>
                <path d="M1397.57,179.54 L1393.47,179.54 C1378.94795,179.581254 1364.54996,176.866573 1351.04,171.54 L1345.33,169.26 C1339.23,166.82 1341.47,159.69 1348.33,159.69 L1472.26,159.69 C1477.69,159.69 1479.01,165.54 1473.9,166.97 L1458.33,171.32 C1438.54246,176.799349 1418.10216,179.564643 1397.57,179.54 Z" id="Shape" fill="#F8ECDB"></path>
                <path d="M1820,130.87 C1820,130.87 1799,139.87 1783.19,134.37 L1783.19,96.11 C1804.59,96.11 1820,112.92 1820,130.87 Z" id="Shape" fill="#F8ECDB"></path>
                <path d="M3.6489779,63 C3.6489779,63 0.765,63 1.41981624,61.25 C0.993761013,61.7863259 0.768186052,62.392621 0.765,63.01 L0.765,213.51 C0.765,215.349108 2.84214925,216.84 5.40444271,216.84 L1214.12556,216.84 C1216.68785,216.84 1218.765,215.349108 1218.765,213.51 L1218.765,63 C1218.76118,62.3826813 1218.53565,61.776499 1218.11018,61.24 C1218.765,63 1215.88102,62.99 1215.88102,62.99 L3.6489779,63 Z" id="Shape" fill="#FFFFFF"></path>
            </g>
            <path d="M182.7,104 L182.7,106.9 L165.6,106.9 L165.6,179 L162.3,179 L162.3,106.9 L145,106.9 L145,104 L182.7,104 Z M193.9,179 L190.7,179 L190.7,104.1 L193.9,104.1 L193.9,142.7 C197.23335,136.166634 202.999959,132.9 211.2,132.9 C216.800028,132.9 221.516648,134.833314 225.35,138.7 C229.183353,142.566686 231.1,147.266639 231.1,152.8 L231.1,179 L227.9,179 L227.9,152.8 C227.9,148.13331 226.266683,144.116683 223,140.75 C219.733317,137.383316 215.800023,135.7 211.2,135.7 C206.599977,135.7 202.566684,137.399983 199.1,140.8 C195.633316,144.200017 193.9,148.199977 193.9,152.8 L193.9,179 Z M278.3,134 L281.5,134 L281.5,179 L278.3,179 L278.3,169.9 C274.899983,176.700034 269.100041,180.1 260.9,180.1 C255.299972,180.1 250.600019,178.166686 246.8,174.3 C242.999981,170.433314 241.1,165.733361 241.1,160.2 L241.1,134 L244.3,134 L244.3,160.2 C244.3,164.800023 245.916651,168.799983 249.15,172.2 C252.38335,175.600017 256.299977,177.3 260.9,177.3 C265.500023,177.3 269.549982,175.600017 273.05,172.2 C276.550018,168.799983 278.3,164.800023 278.3,160.2 L278.3,134 Z M318.8,140.1 C315.866652,137.166652 312.633351,135.7 309.1,135.7 C305.566649,135.7 302.450014,137.03332 299.75,139.7 C297.049986,142.36668 295.7,145.466649 295.7,149 L295.7,179 L292.5,179 L292.5,134 L295.7,134 L295.7,140.7 C296.900006,138.433322 298.766654,136.566674 301.3,135.1 C303.833346,133.633326 306.666651,132.9 309.8,132.9 C312.933349,132.9 315.933319,133.966656 318.8,136.1 L318.8,140.1 Z M337.1,135.6 C335.366658,135.6 333.83334,136.166661 332.5,137.3 C331.16666,138.433339 330.5,139.833325 330.5,141.5 C330.5,143.166675 331.249993,144.699993 332.75,146.1 C334.250008,147.500007 336.04999,148.783328 338.15,149.95 C340.250011,151.116672 342.366656,152.36666 344.5,153.7 C346.633344,155.03334 348.449993,156.733323 349.95,158.8 C351.450008,160.866677 352.2,163.23332 352.2,165.9 C352.2,169.833353 350.716681,173.18332 347.75,175.95 C344.783319,178.71668 341.200021,180.1 337,180.1 C334.33332,180.1 331.850011,179.516672 329.55,178.35 C327.249989,177.183328 325.566672,175.633343 324.5,173.7 L324.5,168.9 C327.033346,174.500028 331.099972,177.3 336.7,177.3 C340.166684,177.3 343.083322,176.233344 345.45,174.1 C347.816679,171.966656 349,169.583347 349,166.95 C349,164.316654 348.250008,162.100009 346.75,160.3 C345.249992,158.499991 343.433344,156.966673 341.3,155.7 C339.166656,154.433327 337.05001,153.183339 334.95,151.95 C332.849989,150.71666 331.050007,149.216676 329.55,147.45 C328.049993,145.683324 327.3,143.616679 327.3,141.25 C327.3,138.883321 328.249991,136.883342 330.15,135.25 C332.050009,133.616658 334.499985,132.8 337.5,132.8 C340.500015,132.8 343.066656,133.966655 345.2,136.3 L345.2,140.4 C343.066656,137.199984 340.366683,135.6 337.1,135.6 Z M406.6,104 L406.6,179 L403.4,179 L403.4,168.1 C401.39999,171.766685 398.500019,174.683323 394.7,176.85 C390.899981,179.016678 387.00002,180.1 383,180.1 C376.399967,180.1 370.783357,177.783356 366.15,173.15 C361.516644,168.516643 359.2,162.966699 359.2,156.5 C359.2,150.033301 361.516644,144.483357 366.15,139.85 C370.783357,135.216644 376.399967,132.9 383,132.9 C387.133354,132.9 391.116647,133.999989 394.95,136.2 C398.783353,138.400011 401.599991,141.333315 403.4,145 L403.4,104 L406.6,104 Z M362.4,156.6 C362.4,162.200028 364.39998,167.04998 368.4,171.15 C372.40002,175.250021 377.216639,177.3 382.85,177.3 C388.483362,177.3 393.34998,175.250021 397.45,171.15 C401.550021,167.04998 403.6,162.200028 403.6,156.6 C403.6,150.999972 401.550021,146.116688 397.45,141.95 C393.34998,137.783312 388.500028,135.7 382.9,135.7 C377.299972,135.7 372.483354,137.766646 368.45,141.9 C364.416647,146.033354 362.4,150.933305 362.4,156.6 Z M463.5,134 L463.5,179 L460.3,179 L460.3,167.8 C458.433324,171.600019 455.633352,174.599989 451.9,176.8 C448.166648,179.000011 444.166688,180.1 439.9,180.1 C433.366634,180.1 427.76669,177.783356 423.1,173.15 C418.43331,168.516643 416.1,162.966699 416.1,156.5 C416.1,150.033301 418.43331,144.483357 423.1,139.85 C427.76669,135.216644 433.366634,132.9 439.9,132.9 C444.166688,132.9 448.24998,134.033322 452.15,136.3 C456.05002,138.566678 458.766659,141.566648 460.3,145.3 L460.3,134 L463.5,134 Z M419.3,156.6 C419.3,162.200028 421.349979,167.04998 425.45,171.15 C429.550021,175.250021 434.416638,177.3 440.05,177.3 C445.683361,177.3 450.49998,175.250021 454.5,171.15 C458.50002,167.04998 460.5,162.183361 460.5,156.55 C460.5,150.916638 458.483353,146.033354 454.45,141.9 C450.416646,137.766646 445.600028,135.7 440,135.7 C434.399972,135.7 429.550021,137.783312 425.45,141.95 C421.349979,146.116688 419.3,150.999972 419.3,156.6 Z M511.7,134 L514.9,134 L514.9,177.6 C514.9,183.533363 512.833354,188.566646 508.7,192.7 C504.566646,196.833354 499.50003,198.9 493.5,198.9 C486.299964,198.9 480.600021,196.133361 476.4,190.6 L476.6,185.6 C478.466676,188.800016 480.916651,191.34999 483.95,193.25 C486.983349,195.15001 490.16665,196.1 493.5,196.1 C498.433358,196.1 502.699982,194.316685 506.3,190.75 C509.900018,187.183315 511.7,182.900025 511.7,177.9 L511.7,170.3 C508.433317,176.833366 502.733374,180.1 494.6,180.1 C489.066639,180.1 484.333353,178.150019 480.4,174.25 C476.466647,170.349981 474.5,165.666694 474.5,160.2 L474.5,134 L477.7,134 L477.7,160.2 C477.7,164.800023 479.383316,168.799983 482.75,172.2 C486.116684,175.600017 490.099977,177.3 494.7,177.3 C499.300023,177.3 503.283317,175.600017 506.65,172.2 C510.016683,168.799983 511.7,164.800023 511.7,160.2 L511.7,134 Z M609.3,154.8 C609.3,161.800035 606.783358,167.749976 601.75,172.65 C596.716641,177.550025 590.666702,180 583.6,180 C576.533298,180 570.483359,177.633357 565.45,172.9 C560.416641,168.166643 557.9,162.500033 557.9,155.9 L557.9,153.8 L561,153.8 L561,155.4 C561,161.466697 563.183311,166.616646 567.55,170.85 C571.916688,175.083354 577.199969,177.2 583.4,177.2 C589.600031,177.2 594.916644,175.083354 599.35,170.85 C603.783355,166.616646 606,161.433364 606,155.3 C606,151.099979 604.883345,147.033353 602.65,143.1 C600.416655,139.166647 597.500018,136.433341 593.9,134.9 L592,134.1 L593.8,132.7 C595.533342,131.36666 596.883328,129.616677 597.85,127.45 C598.816671,125.283322 599.3,123.066678 599.3,120.8 C599.3,116.733313 597.783348,113.200015 594.75,110.2 C591.716652,107.199985 588.083355,105.7 583.85,105.7 C579.616646,105.7 575.916682,107.249984 572.75,110.35 C569.583318,113.450015 567.933334,117.166645 567.8,121.5 L564.6,121.5 C564.733334,116.366641 566.649981,111.983351 570.35,108.35 C574.050018,104.716648 578.51664,102.9 583.75,102.9 C588.98336,102.9 593.416648,104.599983 597.05,108 C600.683351,111.400017 602.5,115.549975 602.5,120.45 C602.5,125.350024 600.733351,129.733314 597.2,133.6 C600.866685,135.800011 603.799989,138.783315 606,142.55 C608.200011,146.316686 609.3,150.399978 609.3,154.8 Z M657.3,180.3 L655.8,180.3 C645.466615,180.3 636.550037,176.433372 629.05,168.7 C621.549962,160.966628 617.8,151.883386 617.8,141.45 C617.8,131.016615 621.599962,121.983371 629.2,114.35 C636.800038,106.716628 645.93328,102.9 656.6,102.9 C667.26672,102.9 676.399962,106.699962 684,114.3 C691.600038,121.900038 695.4,131.03328 695.4,141.7 C695.4,148.433367 693.700017,154.766637 690.3,160.7 C686.899983,166.633363 682.250029,171.383316 676.35,174.95 C670.44997,178.516684 664.100034,180.3 657.3,180.3 Z M692.1,141.7 C692.1,131.833284 688.616701,123.383369 681.65,116.35 C674.683298,109.316631 666.316715,105.8 656.55,105.8 C646.783285,105.8 638.433368,109.316631 631.5,116.35 C624.566632,123.383369 621.1,131.816618 621.1,141.65 C621.1,151.483383 624.566632,159.899965 631.5,166.9 C638.433368,173.900035 646.783285,177.4 656.55,177.4 C666.316715,177.4 674.683298,173.900035 681.65,166.9 C688.616701,159.899965 692.1,151.500049 692.1,141.7 Z M721.5,176.8 L721.5,179.6 C716.766643,179.6 712.73335,178.016683 709.4,174.85 C706.06665,171.683317 704.4,167.633358 704.4,162.7 L704.4,115.9 L707.6,115.9 L707.6,134.1 L721.4,134.1 L721.4,136.9 L707.6,136.9 L707.6,162.7 C707.6,166.766687 708.949987,170.13332 711.65,172.8 C714.350014,175.46668 717.633314,176.8 721.5,176.8 Z M732.7,179 L729.5,179 L729.5,104.1 L732.7,104.1 L732.7,142.7 C736.03335,136.166634 741.799959,132.9 750,132.9 C755.600028,132.9 760.316648,134.833314 764.15,138.7 C767.983352,142.566686 769.9,147.266639 769.9,152.8 L769.9,179 L766.7,179 L766.7,152.8 C766.7,148.13331 765.066683,144.116683 761.8,140.75 C758.533317,137.383316 754.600023,135.7 750,135.7 C745.399977,135.7 741.366684,137.399983 737.9,140.8 C734.433316,144.200017 732.7,148.199977 732.7,152.8 L732.7,179 Z M894.3,104 L894.3,179 L891,179 L891,107.9 L855.6,180.4 L820.4,107.9 L820.4,179 L817.4,179 L817.4,104 L822.2,104 L855.9,173.2 L889.7,104 L894.3,104 Z M952.7,134 L952.7,179 L949.5,179 L949.5,167.8 C947.633324,171.600019 944.833352,174.599989 941.1,176.8 C937.366648,179.000011 933.366688,180.1 929.1,180.1 C922.566634,180.1 916.96669,177.783356 912.3,173.15 C907.63331,168.516643 905.3,162.966699 905.3,156.5 C905.3,150.033301 907.63331,144.483357 912.3,139.85 C916.96669,135.216644 922.566634,132.9 929.1,132.9 C933.366688,132.9 937.44998,134.033322 941.35,136.3 C945.250019,138.566678 947.966659,141.566648 949.5,145.3 L949.5,134 L952.7,134 Z M908.5,156.6 C908.5,162.200028 910.549979,167.04998 914.65,171.15 C918.75002,175.250021 923.616638,177.3 929.25,177.3 C934.883361,177.3 939.69998,175.250021 943.7,171.15 C947.70002,167.04998 949.7,162.183361 949.7,156.55 C949.7,150.916638 947.683354,146.033354 943.65,141.9 C939.616646,137.766646 934.800028,135.7 929.2,135.7 C923.599972,135.7 918.75002,137.783312 914.65,141.95 C910.549979,146.116688 908.5,150.999972 908.5,156.6 Z M1000.9,134 L1004.1,134 L1004.1,177.6 C1004.1,183.533363 1002.03335,188.566646 997.9,192.7 C993.766646,196.833354 988.70003,198.9 982.7,198.9 C975.499964,198.9 969.800021,196.133361 965.6,190.6 L965.8,185.6 C967.666676,188.800016 970.116651,191.34999 973.15,193.25 C976.183348,195.15001 979.36665,196.1 982.7,196.1 C987.633358,196.1 991.899982,194.316685 995.5,190.75 C999.100018,187.183315 1000.9,182.900025 1000.9,177.9 L1000.9,170.3 C997.633317,176.833366 991.933374,180.1 983.8,180.1 C978.266639,180.1 973.533353,178.150019 969.6,174.25 C965.666647,170.349981 963.7,165.666694 963.7,160.2 L963.7,134 L966.9,134 L966.9,160.2 C966.9,164.800023 968.583316,168.799983 971.95,172.2 C975.316683,175.600017 979.299977,177.3 983.9,177.3 C988.500023,177.3 992.483316,175.600017 995.85,172.2 C999.216683,168.799983 1000.9,164.800023 1000.9,160.2 L1000.9,134 Z M1099.7,131 C1099.7,124.266633 1097.50002,118.400025 1093.1,113.4 C1088.69998,108.399975 1082.8667,105.9 1075.6,105.9 C1068.3333,105.9 1062.28336,108.51664 1057.45,113.75 C1052.61664,118.98336 1050.2,125.333296 1050.2,132.8 L1047.1,132.8 C1047.1,124.333291 1049.83331,117.266695 1055.3,111.6 C1060.76669,105.933305 1067.58329,103.1 1075.75,103.1 C1083.91671,103.1 1090.49997,105.866639 1095.5,111.4 C1100.50002,116.933361 1103,123.499962 1103,131.1 C1103,142.100055 1097.10006,151.299963 1085.3,158.7 L1058.1,175.7 L1102.7,175.7 L1102.7,179 L1047.7,179 L1082.6,156.9 C1094.00006,149.699964 1099.7,141.066717 1099.7,131 Z M1151.3,180.3 L1149.8,180.3 C1139.46662,180.3 1130.55004,176.433372 1123.05,168.7 C1115.54996,160.966628 1111.8,151.883386 1111.8,141.45 C1111.8,131.016615 1115.59996,121.983371 1123.2,114.35 C1130.80004,106.716628 1139.93328,102.9 1150.6,102.9 C1161.26672,102.9 1170.39996,106.699962 1178,114.3 C1185.60004,121.900038 1189.4,131.03328 1189.4,141.7 C1189.4,148.433367 1187.70002,154.766637 1184.3,160.7 C1180.89998,166.633363 1176.25003,171.383316 1170.35,174.95 C1164.44997,178.516684 1158.10003,180.3 1151.3,180.3 Z M1186.1,141.7 C1186.1,131.833284 1182.6167,123.383369 1175.65,116.35 C1168.6833,109.316631 1160.31672,105.8 1150.55,105.8 C1140.78328,105.8 1132.43337,109.316631 1125.5,116.35 C1118.56663,123.383369 1115.1,131.816618 1115.1,141.65 C1115.1,151.483383 1118.56663,159.899965 1125.5,166.9 C1132.43337,173.900035 1140.78328,177.4 1150.55,177.4 C1160.31672,177.4 1168.6833,173.900035 1175.65,166.9 C1182.6167,159.899965 1186.1,151.500049 1186.1,141.7 Z M1198.7,179 L1198.7,107.1 L1186.9,107.1 L1186.9,104.2 L1202,104.2 L1202,179 L1198.7,179 Z M1240,159.5 C1232.59996,159.5 1226.13336,156.683361 1220.6,151.05 C1215.06664,145.416639 1212.3,138.716705 1212.3,130.95 C1212.3,123.183294 1215.09997,116.550027 1220.7,111.05 C1226.30003,105.549972 1233.01663,102.8 1240.85,102.8 C1248.68337,102.8 1255.34997,105.549972 1260.85,111.05 C1266.35003,116.550027 1269.1,123.133295 1269.1,130.8 C1269.1,138.466705 1265.73337,146.166628 1259,153.9 L1237.1,179 L1233.3,179 L1253.1,156.3 C1251.96666,157.166671 1250.10001,157.916663 1247.5,158.55 C1244.89999,159.183336 1242.40001,159.5 1240,159.5 Z M1266,131 C1266,123.999965 1263.53336,118.016692 1258.6,113.05 C1253.66664,108.083308 1247.75003,105.6 1240.85,105.6 C1233.94997,105.6 1228.06669,108.083308 1223.2,113.05 C1218.33331,118.016692 1215.9,123.999965 1215.9,131 C1215.9,138.000035 1218.34998,144.033308 1223.25,149.1 C1228.15002,154.166692 1233.99997,156.7 1240.8,156.7 C1247.60003,156.7 1253.49997,154.150025 1258.5,149.05 C1263.50002,143.949974 1266,137.933368 1266,131 Z" id="Thursday-30th-May-20" fill="#E45454"></path>
        </g>
    </g>
</svg>